<svg width="758" height="600" viewBox="0 0 758 600" fill="none" xmlns="http://www.w3.org/2000/svg">
<path d="M446.9 387.65C450.75 390.2 454 393.45 456.6 397.25C457.15 398.05 458.45 397.3 457.9 396.5C455.15 392.5 451.75 389.1 447.7 386.4C446.85 385.8 446.1 387.1 446.9 387.65Z" fill="#030235"/>
<path d="M456.65 390.4C457.45 391.35 458.2 392.35 459 393.3C459.6 394.05 460.65 393 460.05 392.25C459.25 391.3 458.5 390.3 457.7 389.35C457.1 388.6 456.05 389.7 456.65 390.4Z" fill="#030235"/>
<path d="M452.05 376.4C455.5 379.6 458.35 383.25 460.55 387.4C461 388.25 462.3 387.5 461.85 386.65C459.6 382.4 456.65 378.6 453.1 375.35C452.4 374.65 451.35 375.75 452.05 376.4Z" fill="#030235"/>
<path d="M106.35 432.7C107.45 443.55 109.35 454.25 112 464.85C112.25 465.8 113.7 465.4 113.45 464.45C110.85 454 108.95 443.4 107.85 432.7C107.75 431.75 106.25 431.75 106.35 432.7Z" fill="#596476" fill-opacity="0.16"/>
<path d="M112.3 465.35C122.15 467.9 132.4 467.9 142.25 465.35C143.2 465.1 142.8 463.65 141.85 463.9C132.25 466.4 122.3 466.4 112.7 463.9C111.8 463.65 111.4 465.1 112.3 465.35Z" fill="#596476" fill-opacity="0.16"/>
<path d="M143.4 463.85C144.05 453.2 144.9 442.55 145.9 431.9C146 430.95 144.5 430.95 144.4 431.9C143.4 442.55 142.55 453.2 141.9 463.85C141.85 464.8 143.35 464.8 143.4 463.85Z" fill="#596476" fill-opacity="0.16"/>
<path d="M107.2 433.5C119.65 436.05 132.45 435.95 144.9 433.15C145.85 432.95 145.45 431.5 144.5 431.7C132.35 434.4 119.8 434.55 107.6 432.05C106.65 431.85 106.25 433.3 107.2 433.5Z" fill="#596476" fill-opacity="0.16"/>
<path d="M107.05 437.101C107.45 439.151 110.05 439.051 111.65 439.201C115.7 439.551 119.8 439.651 123.85 439.551C127.75 439.451 131.65 439.151 135.55 438.701C138.65 438.301 141.65 437.901 144.4 436.351C145.25 435.901 144.5 434.601 143.65 435.051C138.7 437.801 131.85 437.701 126.3 437.951C123.55 438.051 120.75 438.101 118 438.051C116.55 438.001 108.8 438.351 108.5 436.701C108.3 435.751 106.9 436.151 107.05 437.101Z" fill="#596476" fill-opacity="0.16"/>
<path d="M109.9 454.45C112.3 458.7 115.35 462.45 119 465.7C119.7 466.35 120.8 465.3 120.05 464.65C116.45 461.5 113.5 457.85 111.2 453.7C110.75 452.85 109.45 453.6 109.9 454.45Z" fill="#596476" fill-opacity="0.16"/>
<path d="M107.95 442.9C113.05 451.5 119.25 459.4 126.35 466.5C127.05 467.2 128.1 466.1 127.4 465.45C120.4 458.45 114.3 450.65 109.25 442.15C108.75 441.35 107.45 442.1 107.95 442.9Z" fill="#596476" fill-opacity="0.16"/>
<path d="M116.3 439.3C121.6 448.75 127.75 457.7 134.7 466.05C135.3 466.8 136.35 465.75 135.75 465C128.9 456.75 122.8 447.9 117.6 438.55C117.15 437.7 115.85 438.45 116.3 439.3Z" fill="#596476" fill-opacity="0.16"/>
<path d="M125.85 439.65C131 447.35 136.2 455 141.45 462.65C142 463.45 143.3 462.7 142.75 461.9C137.5 454.25 132.3 446.6 127.15 438.9C126.6 438.1 125.3 438.85 125.85 439.65Z" fill="#596476" fill-opacity="0.16"/>
<path d="M133.85 439.2C136.45 443.4 139.25 447.5 142.15 451.5C142.7 452.25 144 451.5 143.45 450.75C140.55 446.75 137.75 442.65 135.15 438.45C134.65 437.65 133.35 438.4 133.85 439.2Z" fill="#596476" fill-opacity="0.16"/>
<path d="M90.6 388.7C91.2 392.15 91.8 395.65 92.45 399.1C92.65 400.05 92.8 401.05 93.6 401.65C94.15 402.1 95.95 402.05 96.3 402.55C96.35 402.25 96.4 401.95 96.4 401.65C95.65 402.4 94.9 403.15 94.1 403.85C93.9 404.05 93.85 404.35 93.9 404.6C94.35 405.95 94.65 407.95 95.55 409.1C96 409.7 96.8 409.6 97.15 409.95C97.45 410.25 97.35 410.05 97.2 410.95C97.1 411.7 97.1 412.5 97.2 413.3C97.35 414.5 97.7 415.65 98.15 416.75C100.75 423.05 105.8 428.15 110.65 432.85C111.35 433.5 112.4 432.45 111.7 431.8C108.6 428.8 105.5 425.7 102.95 422.2C100.45 418.75 97.5 414.1 99.05 409.7C99.15 409.45 99.05 409.1 98.85 408.95C97.9 408.2 96.95 408.5 96.3 407.3C95.05 405.05 95.75 404.3 97.35 402.75C97.6 402.55 97.65 402.1 97.45 401.85C97.05 401.25 96.75 401.05 96.1 400.85C95.7 400.7 95.1 400.85 94.7 400.65C93.85 400.2 93.85 399.1 93.7 398.3C93.1 395 92.5 391.65 91.95 388.35C91.85 387.35 90.4 387.75 90.6 388.7Z" fill="#596476" fill-opacity="0.16"/>
<path d="M91.6999 388.5C111.2 395 124.55 413.2 124.95 433.8C124.95 434.75 126.45 434.75 126.45 433.8C126.05 412.55 112.25 393.8 92.0999 387.05C91.1999 386.75 90.7999 388.2 91.6999 388.5Z" fill="#596476" fill-opacity="0.16"/>
<path d="M121.65 413.3C126.5 399.85 133.65 386.85 145.1 378C145.85 377.4 145.1 376.1 144.35 376.7C132.55 385.85 125.2 399.05 120.2 412.9C119.9 413.8 121.35 414.2 121.65 413.3Z" fill="#596476" fill-opacity="0.16"/>
<path d="M143.8 377.7C144.15 382.3 144.55 386.9 144.9 391.55C145 392.5 146.5 392.5 146.4 391.55C146.05 386.95 145.65 382.35 145.3 377.7C145.25 376.75 143.75 376.75 143.8 377.7Z" fill="#596476" fill-opacity="0.16"/>
<path d="M145.55 391.05C144.9 391.2 144.25 391.35 143.65 391.55C142.7 391.8 143.1 393.25 144.05 393C144.7 392.85 145.35 392.7 145.95 392.5C146.9 392.25 146.5 390.85 145.55 391.05Z" fill="#596476" fill-opacity="0.16"/>
<path d="M142.9 392.9C143.1 393.85 143.9 394.45 144.8 394.55C145.2 394.6 145.55 394.2 145.55 393.8C145.55 393.35 145.2 393.1 144.8 393.05C144.95 393.05 144.8 393.05 144.75 393.05C144.7 393.05 144.6 393 144.7 393.05C144.65 393 144.6 393 144.55 392.95C144.45 392.9 144.65 393.05 144.5 392.9C144.45 392.85 144.45 392.85 144.4 392.8C144.5 392.9 144.4 392.8 144.4 392.75C144.35 392.7 144.35 392.6 144.35 392.7C144.35 392.65 144.3 392.55 144.3 392.5C144.2 392.1 143.75 391.85 143.4 392C143 392.1 142.8 392.5 142.9 392.9Z" fill="#596476" fill-opacity="0.16"/>
<path d="M144.05 394C144.1 396.85 144 399.65 143.7 402.45C143.6 403.35 143.75 405.45 143.15 406.15C143.1 406.2 142.2 406.35 142 406.5C141.25 407.1 142.3 408.15 143.05 407.55C143.3 407.35 143.9 407.55 144.3 407.1C144.9 406.5 144.8 405.1 144.9 404.4C145.35 400.95 145.55 397.45 145.5 393.95C145.55 393.05 144.05 393.05 144.05 394Z" fill="#596476" fill-opacity="0.16"/>
<path d="M141.4 407.8C143 409.7 142.55 412.85 142.4 415.15C142.2 417.8 141.75 420.25 140.45 422.55C138.6 425.95 136 428.8 134.65 432.5C134.3 433.4 135.75 433.8 136.1 432.9C137.9 428.05 142.05 424.45 143.3 419.35C144.2 415.7 145.05 409.85 142.45 406.75C141.85 406.05 140.8 407.1 141.4 407.8Z" fill="#596476" fill-opacity="0.16"/>
<path d="M129.6 433.2C131 419 134.75 405.15 140.75 392.25C141.15 391.4 139.85 390.6 139.45 391.5C133.35 404.7 129.5 418.75 128.1 433.25C128 434.2 129.5 434.15 129.6 433.2Z" fill="#596476" fill-opacity="0.16"/>
<path d="M100.1 396.85C108.85 407.85 115.25 420.5 119 434C119.25 434.95 120.7 434.55 120.45 433.6C116.6 419.8 110.05 407 101.15 395.8C100.55 395.05 99.5001 396.1 100.1 396.85Z" fill="#596476" fill-opacity="0.16"/>
<path d="M101.05 415.3C105.25 415.05 109.15 416.05 112.7 418.25C113.5 418.75 114.3 417.45 113.45 416.95C109.7 414.65 105.45 413.55 101.05 413.8C100.05 413.85 100.05 415.35 101.05 415.3Z" fill="#596476" fill-opacity="0.16"/>
<path d="M110.2 408.6C109.9 405.85 110.25 403.2 111.3 400.6C111.65 399.7 110.2 399.3 109.85 400.2C108.75 402.9 108.4 405.7 108.7 408.6C108.8 409.55 110.3 409.55 110.2 408.6Z" fill="#596476" fill-opacity="0.16"/>
<path d="M126.4 400.3C128.05 404.35 130.45 408.65 131.05 412.95C131.2 413.9 132.65 413.5 132.5 412.55C131.85 408.2 129.45 403.9 127.85 399.9C127.5 399 126.05 399.4 126.4 400.3Z" fill="#596476" fill-opacity="0.16"/>
<path d="M135.6 405.05C137.05 403.4 138.45 401.45 140.3 400.2C141.85 399.15 143.55 398.45 144.75 397C145.35 396.25 144.3 395.2 143.7 395.95C142.4 397.5 140.5 398.15 138.95 399.35C137.25 400.65 135.95 402.4 134.55 404C133.9 404.75 134.95 405.8 135.6 405.05Z" fill="#596476" fill-opacity="0.16"/>
<path d="M136.1 432.7C138.5 432.05 140.95 431.8 143.45 431.95C144.4 432 144.4 430.5 143.45 430.45C140.8 430.3 138.25 430.55 135.7 431.25C134.8 431.5 135.15 432.95 136.1 432.7Z" fill="#596476" fill-opacity="0.16"/>
<path d="M135.9 433.299C138.7 433.549 141.4 433.2 144.1 432.35C145 432.05 144.6 430.6 143.7 430.9C141.15 431.7 138.55 431.999 135.9 431.799C134.95 431.749 134.95 433.249 135.9 433.299Z" fill="#596476" fill-opacity="0.16"/>
<path d="M107.85 433.05C108.5 433.05 109.1 433.05 109.75 433.05C110.7 433.05 110.7 431.55 109.75 431.55C109.1 431.55 108.5 431.55 107.85 431.55C106.9 431.55 106.9 433.05 107.85 433.05Z" fill="#596476" fill-opacity="0.16"/>
<path d="M144.5 445.15C160.35 445.15 176.25 445.15 192.1 445.15C193.05 445.15 193.05 443.65 192.1 443.65C176.25 443.65 160.35 443.65 144.5 443.65C143.55 443.65 143.55 445.15 144.5 445.15Z" fill="#596476" fill-opacity="0.16"/>
<path d="M412.8 435.25C422.25 435.25 431.65 435.25 441.1 435.25C442.05 435.25 442.05 433.75 441.1 433.75C431.65 433.75 422.25 433.75 412.8 433.75C411.85 433.75 411.85 435.25 412.8 435.25Z" fill="#596476" fill-opacity="0.16"/>
<path d="M498.6 436.15C539.35 436.15 580.1 436.15 620.85 436.15C632.45 436.15 644.05 436.15 655.65 436.15C656.6 436.15 656.6 434.65 655.65 434.65C614.9 434.65 574.15 434.65 533.4 434.65C521.8 434.65 510.2 434.65 498.6 434.65C497.65 434.65 497.65 436.15 498.6 436.15Z" fill="#596476" fill-opacity="0.16"/>
<path d="M438.25 272C434.45 279.85 430.35 287.55 426 295.1C425.8 295.5 425.95 296.15 426.45 296.2C447.9 299.45 467.1 310.1 485.6 320.85C486.45 321.35 487.2 320.05 486.35 319.55C467.7 308.75 448.4 298.05 426.8 294.75C426.95 295.1 427.1 295.5 427.25 295.85C431.65 288.3 435.7 280.6 439.5 272.75C439.95 271.9 438.7 271.1 438.25 272Z" fill="#596476" fill-opacity="0.16"/>
<path d="M441.55 299.25C443.05 294.95 444.55 290.6 446.05 286.3C446.7 284.5 447.15 282.5 448 280.75C448.2 279.7 448.85 278.9 449.85 278.3C450.45 278.45 451.05 278.6 451.65 278.75C452.55 279 453.45 279.2 454.3 279.45C456.35 279.95 459.65 279.95 459.3 282.7C459.05 284.65 457.9 286.75 457.25 288.65C455.75 292.9 454.3 297.15 452.8 301.4C452.5 302.3 453.95 302.7 454.25 301.8C456.2 296.2 458.15 290.55 460.1 284.95C460.55 283.65 461.8 281.45 460.8 280.05C459.7 278.55 456.4 278.45 454.7 278C453.05 277.6 450.15 276.1 448.45 276.9C447 277.55 446.7 280.05 446.25 281.3C444.2 287.15 442.15 293.05 440.1 298.9C439.8 299.75 441.25 300.15 441.55 299.25Z" fill="#596476" fill-opacity="0.16"/>
<path d="M460.85 304.6C464.05 297.85 467.3 291.05 470.5 284.3C472.1 280.9 473.7 277.55 475.35 274.15C476.1 272.6 476.7 270.75 477.65 269.3C478.45 268.05 478.65 267.75 480.05 268.3C480.8 268.6 481.7 269.35 482.35 269.8C483.2 270.4 484.55 271.05 485.15 271.85C485.9 272.8 485.6 273.8 485.15 275C484.55 276.6 483.65 278.15 482.9 279.7C481.25 283.1 479.6 286.5 477.85 289.9C474.55 296.35 471.1 302.75 467.55 309.1C467.05 309.95 468.35 310.7 468.85 309.85C473.2 302.15 477.35 294.35 481.25 286.45C483.2 282.55 485.35 278.55 487 274.5C488.15 271.55 485.65 270.35 483.45 268.8C481.7 267.6 478.95 264.85 477.05 267.1C475.85 268.5 475.2 270.85 474.4 272.55C473.4 274.6 472.45 276.65 471.45 278.75C467.45 287.15 463.45 295.55 459.5 303.95C459.15 304.7 460.45 305.5 460.85 304.6Z" fill="#596476" fill-opacity="0.16"/>
<path d="M477.45 315C481.75 308.25 486.6 301.85 491.95 295.95C491.65 296 491.35 296.05 491.05 296.05C492.95 297.35 494.8 298.6 496.7 299.9C496.6 299.55 496.5 299.2 496.45 298.85C492.2 305.5 487.95 312.1 483.7 318.75C483.2 319.55 484.45 320.3 485 319.5C489.25 312.85 493.5 306.25 497.75 299.6C498 299.25 497.8 298.8 497.5 298.55C495.6 297.25 493.75 296 491.85 294.7C491.6 294.5 491.15 294.6 490.95 294.8C485.5 300.85 480.55 307.3 476.2 314.15C475.65 315.1 476.95 315.85 477.45 315Z" fill="#596476" fill-opacity="0.16"/>
<path d="M537.1 267.45C532.1 265.55 528.95 260.55 529.85 255.2C530.75 249.75 536.1 244.9 541.6 248.15C545.4 250.4 547.35 255.5 545.9 259.65C544.4 264.1 539.5 266.75 534.95 266.05C534 265.9 533.6 267.35 534.55 267.5C539.9 268.3 545.55 265.35 547.35 260.05C549.15 254.75 546.25 248.35 541.05 246.2C534.95 243.7 529.4 248.95 528.35 254.8C527.25 261 530.9 266.7 536.65 268.9C537.6 269.25 538 267.8 537.1 267.45Z" fill="#596476" fill-opacity="0.16"/>
<path d="M547.35 266.5C537.4 266.2 541.15 250.25 549.95 250.85C558.75 251.5 555.15 269.45 545.5 266.15C544.6 265.85 544.2 267.3 545.1 267.6C556.25 271.4 561.25 251.1 550.6 249.4C545.4 248.55 540.7 253.45 539.9 258.3C539.1 263.1 542.35 267.8 547.35 267.95C548.3 268.05 548.3 266.55 547.35 266.5Z" fill="#596476" fill-opacity="0.16"/>
<path d="M539.9 221.25C539.05 220.35 538.65 218.9 539.3 217.8C539.95 216.75 541.55 216.25 542.55 217.05C543.45 217.75 543.65 219.25 542.8 220C541.8 220.9 540.2 220.45 539.25 219.7C538.5 219.1 537.45 220.15 538.2 220.75C539.75 221.95 542.15 222.55 543.8 221.1C545.3 219.75 545.15 217.25 543.65 215.95C542.1 214.6 539.65 215 538.35 216.5C536.9 218.2 537.3 220.75 538.8 222.3C539.5 223 540.55 221.95 539.9 221.25Z" fill="#596476" fill-opacity="0.16"/>
<path d="M394.8 258.9C393.4 250.4 398.35 240.15 407.95 240.25C412.85 240.3 417.6 242.3 422.55 241.6C426.05 241.1 429.05 239.1 431.15 236.35C433.25 233.6 434.45 230.15 434.65 226.7C434.9 221.6 432.95 216.4 434.35 211.35C435.05 208.8 436.55 206.45 439.1 205.5C441.55 204.65 444.2 205.15 446.75 205.05C450.45 204.9 453.35 203.3 455.2 200.05C457.8 195.5 457.2 190.05 459 185.25C461.15 179.45 467.2 174.5 473.6 177.35C474.45 177.75 475.25 176.45 474.35 176.05C465.65 172.15 458.4 180 456.7 187.9C455.6 193.05 455.8 201.05 449.65 203.1C445.35 204.55 440.5 202.3 436.55 205.25C433.3 207.65 432.35 212.05 432.4 215.9C432.55 221.55 434.3 227.05 431.8 232.45C429.5 237.55 424.95 240.6 419.3 240.25C414.3 239.95 409.35 237.9 404.3 239.2C395.75 241.35 392.1 251.45 393.45 259.35C393.55 260.2 395 259.8 394.8 258.9Z" fill="#596476" fill-opacity="0.16"/>
<path d="M458 223.25C456.15 219.05 458.7 215.05 462.75 213.7C465.7 212.7 468.95 212.65 471.5 210.65C473.5 209.1 474.15 207.15 473.9 204.65C473.65 202.3 473.65 200.45 475.5 198.85C477.05 197.5 479.1 197 481.1 196.9C486.6 196.7 494.15 199.5 498.15 194.15C500 191.65 499.45 188.55 500.3 185.75C501.45 181.85 505.2 179.45 509.2 179.65C510.15 179.7 510.15 178.2 509.2 178.15C506.15 178 503.2 179.15 501.1 181.35C498.5 184.1 498.85 187.2 498.05 190.65C495.9 200.1 482.75 193.45 476.55 196.4C474.25 197.5 472.4 199.45 472.2 202.05C471.95 205.1 473.35 207.6 470.25 209.7C468.6 210.8 466.7 211.15 464.8 211.6C461.65 212.35 458.55 213.3 456.95 216.35C455.65 218.75 455.65 221.5 456.75 223.95C457.1 224.9 458.35 224.1 458 223.25Z" fill="#596476" fill-opacity="0.16"/>
<path d="M547.1 156.651C546.9 156.201 546.7 155.701 546.55 155.201C547.2 154.451 547.8 153.701 548.45 152.951C548.65 152.901 549.55 153.501 549.85 153.501C550.6 153.601 551.25 153.401 551.85 152.951C553.7 151.501 553.05 149.201 553.6 147.251C554.5 143.901 558.45 146.201 560.25 143.701C562.05 141.251 561.4 136.051 566.2 137.451C567.15 137.701 567.55 136.251 566.6 136.001C563.85 135.201 561.35 136.501 560.35 139.151C560.05 139.901 559.95 140.751 559.65 141.501C559 143.251 558.3 143.501 556.4 143.601C555 143.701 553.9 143.601 552.95 144.801C552.15 145.851 552.15 147.201 552 148.451C551.85 150.301 552 151.851 549.25 151.651C548.7 151.601 548.25 151.101 547.65 151.101C544.35 151.051 544.9 155.101 545.7 157.051C546 157.951 547.5 157.551 547.1 156.651Z" fill="#596476" fill-opacity="0.16"/>
<path d="M556.5 160.8C555.7 159.75 554.35 156.7 556.7 155.9C557.55 155.6 558.65 155.95 559.55 155.95C560.35 155.95 561.05 155.95 561.7 155.4C563.7 153.8 562.25 150.95 563.3 148.95C565 145.7 568.4 148.25 570.8 146.55C572.5 145.35 572.95 143.05 573.25 141.15C573.4 140.2 571.95 139.8 571.8 140.75C571.45 143 571.05 145.5 568.25 145.75C566.8 145.9 565.7 145.4 564.35 146.05C562.15 147.1 561.45 149.05 561.4 151.3C561.35 153.2 561.8 154.15 558.6 154.3C558.2 154.3 557.8 154.2 557.4 154.2C556.25 154.3 555.25 154.9 554.6 155.85C553.2 157.85 554 160.15 555.4 161.9C556.05 162.65 557.1 161.55 556.5 160.8Z" fill="#596476" fill-opacity="0.16"/>
<path d="M131.4 187.9C135.55 182.9 141.45 178.8 148.25 179.5C155.65 180.25 159.3 186.15 160 193.05C161.2 204.5 158.4 218.2 166.15 227.95C169.2 231.8 173.75 233.85 178.65 232.65C184.55 231.25 189.15 226.6 194.4 223.85C200.6 220.6 209.15 218.85 214.75 224.3C218.85 228.3 219.75 234.4 221.1 239.7C222.35 244.5 224.5 249.8 228.8 252.65C231.4 254.35 234.25 254.5 237.25 254.3C240.6 254.05 247.45 253.85 246.75 259.1C246.65 260.05 248.15 260.05 248.25 259.1C248.5 257.05 247.55 255.4 245.9 254.2C243.3 252.3 240.3 252.6 237.25 252.8C233.8 253.05 230.85 252.75 228.2 250.3C225.8 248.1 224.35 245 223.3 241.95C221.55 236.7 221.05 230.95 218.05 226.15C215.1 221.4 210 219.1 204.5 219.3C197.55 219.55 191.7 223.55 186.15 227.25C183.5 229 180.65 230.85 177.4 231.4C173.5 232.05 170.05 230.35 167.55 227.45C162.85 221.95 162.1 214.1 161.85 207.2C161.6 200.75 162.45 193.75 160.3 187.5C158.35 181.8 153.4 178.25 147.45 177.95C140.55 177.6 134.5 181.75 130.25 186.85C129.7 187.6 130.75 188.65 131.4 187.9Z" fill="#596476" fill-opacity="0.16"/>
<path d="M106.15 265.05C113.95 278.05 120.9 291.5 127.05 305.35C127.45 306.25 128.75 305.45 128.35 304.6C122.2 290.75 115.2 277.3 107.45 264.3C106.95 263.45 105.65 264.2 106.15 265.05Z" fill="#596476" fill-opacity="0.16"/>
<path d="M107.1 264.45C119.25 256.9 131.75 249.85 144.6 243.45C145.45 243 144.7 241.7 143.85 242.15C131.05 248.55 118.55 255.6 106.35 263.15C105.5 263.7 106.25 265 107.1 264.45Z" fill="#596476" fill-opacity="0.16"/>
<path d="M143.7 242.8C150.05 256.15 156.75 269.3 163.85 282.25C164.3 283.1 165.6 282.35 165.15 281.5C158.05 268.55 151.3 255.4 145 242.05C144.55 241.15 143.3 241.9 143.7 242.8Z" fill="#596476" fill-opacity="0.16"/>
<path d="M128.75 305.65C140.7 298.45 152.5 291.05 164.2 283.45C165 282.95 164.25 281.65 163.45 282.15C151.75 289.75 139.95 297.15 128 304.35C127.2 304.85 127.95 306.15 128.75 305.65Z" fill="#596476" fill-opacity="0.16"/>
<path d="M127.8 260.05C127.5 269.65 128.05 279.2 129.45 288.7C129.6 289.65 131.05 289.25 130.9 288.3C129.5 278.95 129 269.5 129.3 260.05C129.35 259.1 127.85 259.1 127.8 260.05Z" fill="#596476" fill-opacity="0.16"/>
<path d="M127.85 259.55C134.8 265 141.75 270.35 148.8 275.65C149.55 276.25 150.3 274.95 149.55 274.35C142.6 269.15 135.7 263.85 128.9 258.5C128.15 257.9 127.1 258.95 127.85 259.55Z" fill="#596476" fill-opacity="0.16"/>
<path d="M131 289C136.75 283.85 144.25 281.1 149.7 275.55C150.4 274.85 149.3 273.8 148.65 274.5C143.2 280 135.75 282.8 129.95 287.95C129.2 288.55 130.3 289.6 131 289Z" fill="#596476" fill-opacity="0.16"/>
<path d="M108.15 272.9C109.75 272.1 111.35 271.35 112.95 270.55C113.8 270.15 113.05 268.85 112.2 269.25C110.6 270.05 109 270.8 107.4 271.6C106.55 272.05 107.3 273.3 108.15 272.9Z" fill="#596476" fill-opacity="0.16"/>
<path d="M113.3 281.401C114.65 280.501 116.1 279.751 117.6 279.101C118.5 278.751 118.1 277.301 117.2 277.651C115.55 278.351 114 279.151 112.5 280.101C111.75 280.651 112.5 281.951 113.3 281.401Z" fill="#596476" fill-opacity="0.16"/>
<path d="M118.95 291.2C120.35 290.5 121.75 289.8 123.15 289.15C124 288.7 123.25 287.45 122.4 287.85C121 288.55 119.6 289.25 118.2 289.9C117.35 290.3 118.1 291.6 118.95 291.2Z" fill="#596476" fill-opacity="0.16"/>
<path d="M121.85 301C123.4 299.65 125 298.5 126.8 297.5C127.65 297 126.9 295.75 126.05 296.2C124.2 297.25 122.45 298.5 120.8 299.95C120.05 300.6 121.1 301.65 121.85 301Z" fill="#596476" fill-opacity="0.16"/>
<path d="M146.55 252.65C147.7 251.85 148.9 251.3 150.25 250.95C151.2 250.7 150.8 249.3 149.85 249.5C148.4 249.85 147 250.45 145.75 251.35C145 251.9 145.75 253.2 146.55 252.65Z" fill="#596476" fill-opacity="0.16"/>
<path d="M151 261.2C152.6 260.2 154.2 259.2 155.75 258.15C156.55 257.65 155.8 256.35 155 256.85C153.4 257.85 151.8 258.85 150.25 259.9C149.4 260.45 150.15 261.75 151 261.2Z" fill="#596476" fill-opacity="0.16"/>
<path d="M156.1 271.451C157.8 270.701 159.55 269.951 161.25 269.2C162.15 268.8 161.35 267.5 160.5 267.9C158.8 268.65 157.05 269.4 155.35 270.15C154.45 270.55 155.25 271.851 156.1 271.451Z" fill="#596476" fill-opacity="0.16"/>
<path d="M159.75 278.15C161.1 276.85 162.6 275.75 164.25 274.8C165.1 274.35 164.35 273.05 163.5 273.5C161.75 274.5 160.15 275.65 158.7 277.05C158 277.75 159.05 278.8 159.75 278.15Z" fill="#596476" fill-opacity="0.16"/>
<path d="M133 299.05C134.25 300.9 135.3 302.85 136.1 304.9C136.45 305.8 137.9 305.4 137.55 304.5C136.7 302.3 135.65 300.2 134.3 298.25C133.75 297.5 132.45 298.25 133 299.05Z" fill="#596476" fill-opacity="0.16"/>
<path d="M140.65 294.9C141.6 296.6 142.5 298.25 143.45 299.95C143.9 300.8 145.2 300.05 144.75 299.2C143.8 297.5 142.9 295.85 141.95 294.15C141.5 293.3 140.2 294.05 140.65 294.9Z" fill="#596476" fill-opacity="0.16"/>
<path d="M149.5 288.55C150.5 290.35 151.5 292.15 152.5 293.95C152.95 294.8 154.25 294.05 153.8 293.2C152.8 291.4 151.8 289.6 150.8 287.8C150.35 286.95 149.05 287.7 149.5 288.55Z" fill="#596476" fill-opacity="0.16"/>
<path d="M157.45 283.8C158.25 285.7 159.05 287.6 159.9 289.45C160.3 290.35 161.55 289.55 161.2 288.7C160.4 286.8 159.6 284.9 158.75 283.05C158.35 282.2 157.05 282.95 157.45 283.8Z" fill="#596476" fill-opacity="0.16"/>
<path d="M112.1 256.75C113.05 258.3 113.95 259.85 114.9 261.35C115.4 262.2 116.7 261.4 116.2 260.6C115.25 259.05 114.35 257.5 113.4 256C112.9 255.2 111.6 255.95 112.1 256.75Z" fill="#596476" fill-opacity="0.16"/>
<path d="M120.7 251.75C121.6 253.75 122.5 255.75 123.4 257.75C123.8 258.65 125.1 257.85 124.7 257C123.8 255 122.9 253 122 251C121.55 250.1 120.3 250.85 120.7 251.75Z" fill="#596476" fill-opacity="0.16"/>
<path d="M128.45 246.95C129.8 248.75 130.85 250.7 131.55 252.8C131.85 253.7 133.3 253.3 133 252.4C132.25 250.15 131.2 248.05 129.75 246.2C129.2 245.45 127.9 246.15 128.45 246.95Z" fill="#596476" fill-opacity="0.16"/>
<path d="M136.8 243.1C137.85 244.7 138.85 246.25 139.9 247.85C140.4 248.65 141.7 247.9 141.2 247.1C140.15 245.5 139.15 243.95 138.1 242.35C137.55 241.55 136.25 242.3 136.8 243.1Z" fill="#596476" fill-opacity="0.16"/>
<path d="M214.55 143.95C209.7 142.45 209.45 137.3 211.75 133.45C214 129.7 218.35 128.7 221.75 131.8C224.55 134.4 224.8 138.85 222.2 141.7C219.6 144.6 215.35 144.55 212.35 142.35C211.6 141.75 210.85 143.05 211.6 143.65C215.4 146.45 220.95 146 223.8 142.05C226.75 138.05 225.7 132.45 221.55 129.75C211.55 123.3 202.95 141.9 214.15 145.4C215.1 145.7 215.5 144.25 214.55 143.95Z" fill="#596476" fill-opacity="0.16"/>
<path d="M222.6 145.25C218.85 146.4 217.95 141.9 219.6 139.5C220.95 137.55 223.6 136.4 226 137.05C228.3 137.65 229.95 140 229.35 142.35C228.6 145.3 225.5 146.35 222.75 145.9C221.8 145.75 221.4 147.2 222.35 147.35C226.05 148 230.05 146.4 230.85 142.4C231.55 138.95 228.85 135.8 225.5 135.4C221.8 134.95 217.75 137.65 217.25 141.45C216.8 144.75 219.8 147.7 223.1 146.65C223.95 146.4 223.55 144.95 222.6 145.25Z" fill="#596476" fill-opacity="0.16"/>
<path d="M190.7 177.8C189.5 180.25 191.2 182.7 193.7 183.35C195.6 183.85 197.6 183.4 199.55 183.5C201.65 183.6 203.75 184.1 205.65 184.95C209.85 186.85 212.55 190.3 212.7 194.95C212.85 198.85 211.7 202.9 213.4 206.6C217 214.4 226.9 208.45 232 213.5C236.25 217.75 234.5 225.5 240.2 228.75C241.05 229.25 241.8 227.95 240.95 227.45C235.85 224.55 237.05 217 233.45 212.8C231.55 210.6 228.8 210 226 209.8C222.6 209.6 218.2 210.3 215.7 207.4C212.8 204 214.35 198.9 214.2 194.9C214.1 191.75 213.05 188.9 210.85 186.65C208.9 184.7 206.35 183.35 203.7 182.65C202.35 182.3 200.95 182.05 199.55 182C197.75 181.9 189.95 182.8 192.05 178.55C192.45 177.7 191.15 176.95 190.7 177.8Z" fill="#596476" fill-opacity="0.16"/>
<path d="M73.8 447.7C82.85 447.7 91.85 447.7 100.9 447.7C101.85 447.7 101.85 446.2 100.9 446.2C91.85 446.2 82.85 446.2 73.8 446.2C72.8 446.2 72.8 447.7 73.8 447.7Z" fill="#596476" fill-opacity="0.16"/>
<path d="M88.4001 481.6C105.8 481.6 123.15 481.6 140.55 481.6C141.5 481.6 141.5 480.1 140.55 480.1C123.15 480.1 105.8 480.1 88.4001 480.1C87.4001 480.1 87.4001 481.6 88.4001 481.6Z" fill="#596476" fill-opacity="0.16"/>
<path d="M138.45 472.2C154.6 472.2 170.8 472.2 186.95 472.2C187.9 472.2 187.9 470.7 186.95 470.7C170.8 470.7 154.6 470.7 138.45 470.7C137.45 470.7 137.45 472.2 138.45 472.2Z" fill="#596476" fill-opacity="0.16"/>
<path d="M407.4 469.6C415.55 467.6 423.75 467.4 432.05 468.7C435.55 469.25 439.1 469.8 442.65 469.5C446.1 469.2 449.45 468.15 452.8 467.25C456.6 466.2 460.4 465.4 464.4 465.7C468.5 466 472.45 467.15 476.45 468.05C479.9 468.85 483.4 469.4 486.95 469.35C490.7 469.25 494.4 468.6 498.05 468.05C508.05 466.45 517.45 467.45 527.35 469.1C528.3 469.25 528.7 467.8 527.75 467.65C519.75 466.35 511.7 465 503.55 465.8C495.05 466.65 487.15 468.75 478.55 467C471.35 465.55 464.5 463.3 457.1 464.7C453.15 465.45 449.4 466.85 445.45 467.6C441.05 468.45 436.8 467.95 432.4 467.25C423.85 465.95 415.4 466.05 406.95 468.15C406.1 468.4 406.5 469.85 407.4 469.6Z" fill="#596476" fill-opacity="0.16"/>
<path d="M484.2 454.4C499.9 453.55 515.6 452.7 531.3 451.9C539.05 451.5 546.55 451.65 554.25 452.7C557.7 453.15 561 453.25 564.45 452.85C568.3 452.4 572.3 451.8 575.9 453.65C576.75 454.1 577.5 452.8 576.65 452.35C570.55 449.25 563.5 452.15 556.95 451.55C553.05 451.2 549.25 450.45 545.35 450.25C541.3 450.05 537.25 450.15 533.2 450.35C516.85 451.1 500.5 452.1 484.15 452.95C483.25 452.95 483.25 454.45 484.2 454.4Z" fill="#596476" fill-opacity="0.16"/>
<path d="M176.75 497.35C184.15 498.05 191.6 498.75 199 497.9C202.45 497.5 205.75 496.75 209.1 495.75C213.45 494.45 217.35 494.1 221.85 494.9C225.3 495.5 228.7 496.35 232.15 496.65C235.8 496.95 239.45 496.75 243.1 496.4C250.75 495.65 258.4 494.35 266 496.05C266.95 496.25 267.35 494.8 266.4 494.6C259.1 493 251.8 494.05 244.45 494.8C240.8 495.15 237.15 495.5 233.5 495.3C229.35 495.1 225.35 494 221.3 493.35C217.9 492.8 214.65 492.8 211.3 493.6C207.7 494.5 204.3 495.7 200.6 496.25C192.7 497.4 184.65 496.6 176.75 495.9C175.75 495.75 175.8 497.25 176.75 497.35Z" fill="#596476" fill-opacity="0.16"/>
<path d="M255.85 93.9001C253.9 92.5501 251.25 90.4001 252.05 87.7001C252.9 84.9001 255 86.2501 256.95 85.6001C259.55 84.7501 259.4 81.6001 258.65 79.5501C257.9 77.5501 256.3 72.7001 260.45 74.3501C261.4 74.7501 262.1 75.4001 263.2 75.0501C264.2 74.7501 264.7 73.8501 264.95 72.9001C265.15 72.0501 265 71.1501 264.95 70.2501C264.85 69.6501 264.8 69.0001 264.8 68.4001C264.6 66.9501 265.5 66.3501 267.4 66.6001C267.45 67.5501 268.95 67.5501 268.9 66.6001C268.8 65.2001 267.75 64.2001 266.25 64.2501C264.5 64.3001 263.55 66.0001 263.35 67.6001C263.2 68.7001 264.1 71.2501 263.6 72.1501C263 72.5501 262.4 73.0001 261.75 73.4001C261.5 73.2501 261.25 73.1001 261 72.9501C260.55 72.8001 260.2 72.5001 259.75 72.4001C258.2 72.0501 256.95 73.0001 256.4 74.4001C255.45 76.8001 257.15 78.8001 257.65 81.0501C258.3 84.1501 255.95 83.8001 253.9 84.1501C253 84.3001 252.25 84.7501 251.65 85.4001C248.5 89.0501 252.15 93.1001 255.15 95.2001C255.9 95.7501 256.65 94.4501 255.85 93.9001Z" fill="#596476" fill-opacity="0.16"/>
<path d="M265.7 92.5004C264.05 90.6004 262.8 88.0004 266 87.0004C266.8 86.7504 267.7 86.8504 268.45 86.3504C270.1 85.2004 269.4 83.6504 269.1 82.0504C268.95 81.1504 268.6 79.9504 269.15 79.0504C269.55 78.4004 271 78.1504 271.75 78.0004C272.8 77.7504 273.9 77.6004 274.8 77.0004C276.15 76.0504 276.65 74.3504 275.75 72.9004C275.25 72.1004 273.95 72.8504 274.45 73.6504C275.95 76.0504 268.95 76.7004 267.75 78.4504C266.35 80.5004 269.3 84.1004 266.85 85.4004C265.9 85.9004 264.7 85.5504 263.8 86.2004C263.15 86.6504 262.7 87.3504 262.5 88.1004C261.95 90.2504 263.4 92.1004 264.7 93.6004C265.3 94.3004 266.35 93.2504 265.7 92.5004Z" fill="#596476" fill-opacity="0.16"/>
<path d="M206.65 80.6499C205.35 79.7499 205.2 78.1499 205.6 76.7499C205.85 75.7999 207.05 73.1999 208.2 73.0999C210.1 72.8999 211.05 75.2999 211.55 76.6999C212 78.0499 212.15 79.3999 212.2 80.7999C212.2 81.7499 213.7 81.7499 213.7 80.7999C213.65 77.9999 211.8 69.3999 207.2 71.8999C205.45 72.8499 204.15 75.5999 203.95 77.4999C203.75 79.2999 204.45 80.8999 205.9 81.9499C206.65 82.4999 207.4 81.1999 206.65 80.6499Z" fill="#596476" fill-opacity="0.16"/>
<path d="M206.05 81.4501C204.25 81.9001 202.45 82.3501 200.6 82.8001C199.55 83.0501 197.75 83.1501 196.9 83.9501C195.45 85.3001 195.85 89.4501 195.85 91.2001C195.85 91.7001 196.35 92.0501 196.8 91.9001C197.05 91.8501 197.3 91.7501 197.6 91.7001C198.9 91.0001 199.55 91.4501 199.6 92.9501C200.6 93.9501 200.6 94.5501 199.6 94.6501C199 94.9001 198.4 95.0001 197.75 95.0001C197.35 95.0501 197 95.3001 197 95.7501C197.1 98.9501 197.35 102.1 197.7 105.3C197.8 106.25 199.3 106.25 199.2 105.3C198.85 102.1 198.6 98.9501 198.5 95.7501C198.25 96.0001 198 96.2501 197.75 96.5001C199.85 96.2501 203.2 95.4001 202.75 92.5501C202.25 89.5001 198.55 89.8501 196.45 90.4501C196.75 90.7001 197.1 90.9501 197.4 91.1501C197.4 90.0001 197.4 88.9001 197.5 87.7501C197.65 85.9501 197.55 85.3001 199.2 84.6501C201.45 83.7501 204.1 83.4501 206.45 82.8501C207.4 82.7001 207 81.2501 206.05 81.4501Z" fill="#596476" fill-opacity="0.16"/>
<path d="M213.25 81.8999C215.35 81.7999 217.5 81.7999 219.6 82.0499C221.6 82.2999 221.5 82.5999 221.8 84.3499C222 85.4499 222.05 86.5999 222.15 87.6999C222.55 91.9999 222.85 96.2999 223.1 100.6C223.15 101.55 224.65 101.55 224.6 100.6C224.3 94.7499 224.1 88.7499 223.15 82.9499C222.9 81.4999 222.65 81.0499 221.15 80.7999C218.55 80.2999 215.85 80.2999 213.25 80.4499C212.3 80.4499 212.3 81.9499 213.25 81.8999Z" fill="#596476" fill-opacity="0.16"/>
<path d="M198.8 106.35C201.75 105.85 204.7 105.35 207.6 104.85C210.95 104.3 214.15 104.55 217.5 104.3C219.05 104.15 226.4 103.4 223.7 100.35C223.05 99.65 222 100.7 222.65 101.4C223.05 101.85 216.25 102.85 216.1 102.85C214 102.9 211.9 102.8 209.8 103.05C206 103.5 202.2 104.3 198.4 104.95C197.45 105.05 197.85 106.5 198.8 106.35Z" fill="#596476" fill-opacity="0.16"/>
<path d="M464.4 394.3C464.25 399.55 464.1 404.8 463.95 410.1C470.6 410.55 477.2 410.95 483.85 411.4C483.85 406 483.85 400.6 483.85 395.2C477.35 394.9 470.9 394.6 464.4 394.3Z" fill="white" stroke="#030235" stroke-width="2" stroke-miterlimit="10"/>
<path d="M473.05 452.65C473.95 458.45 474.35 463.25 474.55 466.7C475.2 478.15 474.7 480.8 473.7 482.9C471.25 488.05 466.8 490.2 467.2 490.9C467.5 491.35 469.7 490.85 479.5 485.7C478.9 474.3 478.35 462.95 477.75 451.55C476.2 451.95 474.65 452.3 473.05 452.65Z" fill="white" stroke="#030235" stroke-width="2" stroke-miterlimit="10"/>
<path d="M460.1 415.9C468.6 415.95 477.1 416.05 485.6 416.1C484.65 427.5 483.75 438.85 482.8 450.25C475.4 449.65 467.95 449.1 460.55 448.5C460.35 437.65 460.2 426.8 460.1 415.9Z" fill="white" stroke="#030235" stroke-width="2" stroke-miterlimit="10"/>
<path d="M463.55 452.25C466.25 458.8 467.15 464.45 467.45 468.25C467.9 473.85 468.2 478.15 465.5 481C464.5 482.1 462.85 483.15 459.65 485.3C456.8 487.2 455.45 487.9 455.55 488.1C455.7 488.4 458.45 487.8 470.45 483.55C471.25 479.5 471.9 474.3 471.75 468.2C471.55 461.7 470.5 456.15 469.35 452C467.45 452.1 465.5 452.15 463.55 452.25Z" fill="white" stroke="#030235" stroke-width="2" stroke-miterlimit="10"/>
<path d="M467.9 491.35C469.4 490.1 470.8 488.75 472.15 487.3C473.7 485.6 476 483 478.4 485.25C478.45 484.85 478.5 484.45 478.55 484.05C475 485.8 471.5 487.55 467.95 489.25C467.25 489.6 467.6 490.65 468.35 490.65C471.7 490.7 473.8 484.85 477.25 485.95C478.15 486.25 478.55 484.8 477.65 484.5C476.15 484.05 475 484.45 473.75 485.35C472.3 486.4 470.25 489.15 468.4 489.15C468.55 489.6 468.65 490.1 468.8 490.55C472.35 488.8 475.85 487.05 479.4 485.35C479.85 485.15 479.9 484.5 479.55 484.15C478.2 482.9 475.8 482.45 474.1 483.25C472.85 483.8 472.05 485.25 471.15 486.2C469.8 487.65 468.4 488.95 466.9 490.25C466.1 490.9 467.15 492 467.9 491.35Z" fill="#030235"/>
<path d="M474.05 483.55C475.55 483.6 477 483.9 478.4 484.5C479.25 484.9 480.05 483.6 479.15 483.2C477.5 482.45 475.85 482.05 474.05 482C473.1 482.05 473.1 483.55 474.05 483.55Z" fill="#030235"/>
<path d="M465.85 481.8C467 482.1 468 482.7 468.8 483.6C469.45 484.3 470.5 483.25 469.85 482.55C468.85 481.5 467.6 480.75 466.2 480.4C465.35 480.1 464.95 481.55 465.85 481.8Z" fill="#030235"/>
<path d="M457.75 487.85C459.3 486.7 460.9 485.65 462.55 484.65C463.3 484.2 464.1 483.6 464.9 483.35C466.15 482.9 466.9 483.2 468.05 483.7C468.05 483.25 468.05 482.85 468.05 482.4C466.45 483.1 464.65 483.05 463 483.75C461.4 484.4 459.9 486 458.25 486.3C458.45 486.75 458.65 487.2 458.85 487.65C461.8 486.2 465.1 485.95 468.05 484.5C468.9 484.05 468.15 482.8 467.3 483.2C464.35 484.65 461.05 484.9 458.1 486.35C457.3 486.75 457.9 487.85 458.7 487.7C460.5 487.4 461.95 485.75 463.65 485.1C465.35 484.45 467.2 484.4 468.85 483.7C469.35 483.5 469.35 482.6 468.85 482.4C466.95 481.55 466.1 481.05 464.2 482.05C461.7 483.35 459.35 484.9 457.1 486.55C456.2 487.1 456.95 488.4 457.75 487.85Z" fill="#030235"/>
<path d="M466.3 459.9C467.55 459.45 468.8 459.5 469.95 460.1C470.8 460.55 471.55 459.25 470.7 458.8C469.2 458 467.5 457.85 465.9 458.45C465 458.8 465.4 460.25 466.3 459.9Z" fill="#030235"/>
<path d="M467.55 464.9C468.6 464.8 469.6 465.05 470.4 465.75C471.15 466.35 472.2 465.3 471.45 464.7C470.35 463.8 469 463.3 467.55 463.4C466.6 463.45 466.6 464.95 467.55 464.9Z" fill="#030235"/>
<path d="M468.1 471.15C469.05 471.05 469.95 471.4 470.5 472.2C471 473 472.3 472.25 471.8 471.45C471.05 470.2 469.6 469.45 468.15 469.65C467.75 469.7 467.4 469.95 467.4 470.4C467.35 470.75 467.7 471.2 468.1 471.15Z" fill="#030235"/>
<path d="M474.55 459.55C475.45 459.05 476.6 459.1 477.45 459.8C478.2 460.4 479.25 459.35 478.5 458.75C477.15 457.65 475.35 457.4 473.8 458.25C472.95 458.75 473.7 460.05 474.55 459.55Z" fill="#030235"/>
<path d="M475.4 469C476.2 468.65 477.1 468.8 477.75 469.4C478.45 470.05 479.55 469 478.8 468.35C477.65 467.3 476.05 467.05 474.6 467.75C473.75 468.1 474.55 469.4 475.4 469Z" fill="#030235"/>
<path d="M475.6 477C476.4 476.5 477.4 476.5 478.15 477.1C478.9 477.7 479.95 476.65 479.2 476.05C477.95 475 476.2 474.85 474.85 475.75C474.05 476.25 474.8 477.55 475.6 477Z" fill="#030235"/>
<path d="M486.8 416.05C485.8 427.55 484.8 439.05 483.8 450.55" stroke="#030235" stroke-width="6" stroke-miterlimit="10"/>
<path d="M460.4 448.95C468.75 449.55 477.1 450.1 485.45 450.7" stroke="#030235" stroke-width="6" stroke-miterlimit="10"/>
<path d="M485.5 394.75C485.3 400.45 485.05 406.1 484.85 411.8" stroke="#030235" stroke-width="6" stroke-miterlimit="10"/>
<path d="M486.55 422.8C491.2 421.95 496.15 425.6 496.5 430.4C497 436.4 490.15 437.45 485.65 436.8C484.7 436.65 484.3 438.1 485.25 438.25C490.75 439.05 498.5 437.5 498 430.4C497.6 424.55 491.75 420.3 486.15 421.35C485.2 421.5 485.6 422.95 486.55 422.8Z" fill="#030235"/>
<path d="M485.45 439.45C487.4 439.85 488.95 441.25 489.5 443.15C489.75 444.1 491.2 443.7 490.95 442.75C490.3 440.35 488.35 438.45 485.9 438C484.9 437.85 484.5 439.25 485.45 439.45Z" fill="#030235"/>
<path d="M484.7 438.95C485.9 440.7 486.45 442.65 486.25 444.8C486.2 445.75 487.7 445.75 487.75 444.8C487.9 442.45 487.3 440.15 485.95 438.2C485.45 437.4 484.15 438.15 484.7 438.95Z" fill="#030235"/>
<path d="M460.05 422.1C456.75 420 450.7 426.05 449.95 429C448.45 435 456.15 434.3 459.35 436.3C460.15 436.8 460.9 435.5 460.1 435C457.8 433.55 454.4 434.1 452.4 432.3C449.95 430.1 452.2 427.45 453.9 425.9C454.8 425.1 457.85 422.45 459.3 423.35C460.1 423.95 460.9 422.65 460.05 422.1Z" fill="#030235"/>
<path d="M459.25 435.6C457.95 436.1 456.75 436.85 455.75 437.9C455 438.7 454.05 439.95 454.8 441.05C455.35 441.85 456.65 441.1 456.1 440.3C455.75 439.8 457.05 438.7 457.4 438.4C458.05 437.8 458.8 437.35 459.65 437.05C460.55 436.7 460.2 435.25 459.25 435.6Z" fill="#030235"/>
<path d="M458.65 436.65C457.7 438.15 457.4 439.85 457.75 441.55C457.95 442.5 459.4 442.1 459.2 441.15C458.9 439.8 459.2 438.55 459.95 437.4C460.5 436.6 459.2 435.85 458.65 436.65Z" fill="#030235"/>
<path d="M463.4 421.15C463.15 424.8 463.2 428.5 463.45 432.15C463.55 433.1 465.05 433.1 464.95 432.15C464.65 428.5 464.65 424.8 464.9 421.15C465 420.2 463.5 420.2 463.4 421.15Z" fill="#030235"/>
<path d="M464.5 421.55C469.8 421.85 475.05 422.05 480.35 422.15C480.1 421.9 479.85 421.65 479.6 421.4C479.45 425.15 479.3 428.95 479.1 432.7C479.05 433.65 480.55 433.65 480.6 432.7C480.75 428.95 480.9 425.15 481.1 421.4C481.1 421 480.75 420.65 480.35 420.65C475.05 420.55 469.8 420.35 464.5 420.05C463.55 420 463.55 421.5 464.5 421.55Z" fill="#030235"/>
<path d="M463.9 432.8C466.1 433.4 468.55 433.25 470.75 433.4C473.45 433.55 476.2 433.75 478.9 433.9C479.85 433.95 479.85 432.45 478.9 432.4C476.5 432.25 474.1 432.1 471.7 431.95C469.3 431.8 466.6 431.95 464.25 431.35C463.4 431.1 463 432.55 463.9 432.8Z" fill="#030235"/>
<path d="M465.6 440.55C466.5 442.5 468.45 440.8 469.95 441.5C470.65 441.8 470.5 442.25 471.45 442.3C472.55 442.35 475.25 440.15 475.8 442.2C475.95 442.75 476.65 442.9 477.05 442.55C477.55 442.4 478.1 442.25 478.6 442.15C479.2 442.9 480.3 441.8 479.65 441.1C478.5 439.75 477.05 440.5 475.95 441.5C476.35 441.6 476.8 441.7 477.2 441.85C476.75 440.1 474.9 438.95 473.15 439.75C472.3 440.15 472.2 440.9 470.9 440.4C470.65 440.3 470.55 439.9 470.3 439.8C469.75 439.6 466.85 439.9 466.85 439.85C466.5 438.9 465.2 439.65 465.6 440.55Z" fill="#030235"/>
<path d="M468.25 401.2C468.35 400.65 469 400.5 469.45 400.7C470.1 400.95 470.45 401.7 470.75 402.25C471.15 403.1 472.45 402.35 472.05 401.5C471.5 400.4 470.65 399.25 469.3 399.1C468.2 399 467.05 399.65 466.85 400.75C466.6 401.75 468.05 402.15 468.25 401.2Z" fill="#030235"/>
<path d="M477.45 401.9C477.55 401.4 478 401.1 478.5 401.3C479.1 401.5 479.35 402.25 479.45 402.8C479.6 403.75 481.05 403.35 480.9 402.4C480.7 401.2 479.9 399.95 478.6 399.75C477.45 399.6 476.2 400.3 476 401.5C475.85 402.45 477.3 402.85 477.45 401.9Z" fill="#030235"/>
<path d="M469 404.35C470.7 407.35 474.75 407.8 476.95 405.1C477.55 404.35 476.5 403.3 475.9 404.05C474.3 406 471.55 405.85 470.3 403.6C469.85 402.75 468.55 403.5 469 404.35Z" fill="#030235"/>
<path d="M416.55 132.65C410.25 130.1 406.45 124 404.15 117.9C401.7 111.55 400.65 104.65 401 97.8502C401.6 85.3002 406.95 72.6002 416.85 64.6002C426.2 57.0002 440.05 54.8502 450.45 61.7502C461.3 68.9502 463.25 83.8002 463.35 95.7502C463.45 109.05 460.35 123 450.5 132.55C449.8 133.2 450.85 134.3 451.55 133.6C460.9 124.5 464.45 111.5 464.8 98.8002C465.15 86.3502 463.65 70.6002 453.4 62.0502C443.8 54.0502 429.55 54.4502 419.3 60.9502C407.95 68.1502 401.25 81.2002 399.8 94.3502C398.9 102.5 399.9 110.95 402.9 118.65C405.45 125.15 409.5 131.35 416.2 134.05C417.05 134.45 417.4 133 416.55 132.65Z" fill="#030235"/>
<path d="M415.85 133.6C414.15 136 414.5 139.55 417 141.35C418.9 142.7 421.7 142.9 423.95 143.2C426.65 143.6 429.4 143.75 432.15 143.75C437.05 143.7 442.65 143.35 447.2 141.45C450.5 140.05 453 136.75 451.25 133.2C450.85 132.35 449.55 133.1 449.95 133.95C453.7 141.6 435.95 142.25 432.1 142.25C428.55 142.25 425 141.95 421.55 141.3C419.9 141 418.05 140.7 417 139.25C415.95 137.75 416.15 135.8 417.15 134.4C417.7 133.55 416.4 132.8 415.85 133.6Z" fill="#030235"/>
<path d="M417.45 141.701C417.45 144.201 417.5 146.751 417.8 149.251C417.95 150.401 418.2 151.401 419.15 152.101C420.5 153.101 422.75 153.051 424.35 153.201C427.05 153.401 429.8 153.401 432.5 153.301C435.05 153.201 437.6 153.001 440.15 152.751C441.65 152.601 443.35 152.651 444.5 151.501C447.05 149.001 447.1 144.251 446.45 141.101C446.25 140.151 444.8 140.551 445 141.501C445.35 143.201 445.45 144.901 445.1 146.651C444.6 149.101 443.9 150.701 441.15 151.201C437.95 151.801 434.35 151.801 431.1 151.851C427.9 151.901 424.3 152.051 421.15 151.301C418.25 150.601 419 144.101 419 141.701C418.95 140.751 417.45 140.751 417.45 141.701Z" fill="#030235"/>
<path d="M417.95 87.8499C423.95 91.5999 428.5 97.0999 431.05 103.7C431.4 104.6 432.85 104.2 432.5 103.3C429.8 96.2999 425.05 90.4999 418.75 86.5499C417.9 85.9999 417.15 87.2999 417.95 87.8499Z" fill="#030235"/>
<path d="M432.25 103.7C435.2 97.4997 439.5 92.1997 445 88.0997C445.75 87.5497 445 86.1998 444.25 86.7998C438.55 91.0498 434.05 96.5497 430.95 102.95C430.55 103.8 431.85 104.55 432.25 103.7Z" fill="#030235"/>
<path d="M431.05 101.95C431.8 112.25 432.15 122.55 432 132.85C432 133.8 433.5 133.8 433.5 132.85C433.65 122.55 433.3 112.2 432.55 101.95C432.45 100.95 430.95 100.95 431.05 101.95Z" fill="#030235"/>
<path d="M372.5 127.15C379.15 124.9 385.75 122.65 392.4 120.4C393.3 120.1 392.9 118.65 392 118.95C385.35 121.2 378.75 123.45 372.1 125.7C371.15 126 371.55 127.45 372.5 127.15Z" fill="#030235"/>
<path d="M380.1 117.15C382.4 116.5 384.7 115.8 387 115.15C387.9 114.9 387.55 113.45 386.6 113.7C384.3 114.35 382 115.05 379.7 115.7C378.8 116 379.15 117.45 380.1 117.15Z" fill="#030235"/>
<path d="M363.45 100.5C372.25 100.4 381 100.65 389.75 101.2C390.7 101.25 390.7 99.7503 389.75 99.7003C381 99.1503 372.2 98.9503 363.45 99.0003C362.5 99.0003 362.5 100.5 363.45 100.5Z" fill="#030235"/>
<path d="M382.05 93.6998C384.15 94.2498 386.3 94.4998 388.45 94.5498C389.4 94.5498 389.4 93.0498 388.45 93.0498C386.4 92.9998 384.4 92.7498 382.45 92.2498C381.5 91.9998 381.1 93.4498 382.05 93.6998Z" fill="#030235"/>
<path d="M378.8 47.15C386.65 53.9 393.8 61.3 400.25 69.4C400.85 70.15 401.9 69.1 401.3 68.35C394.85 60.25 387.7 52.8 379.85 46.1C379.15 45.45 378.05 46.5 378.8 47.15Z" fill="#030235"/>
<path d="M400.75 61.3502C402.1 62.7502 403.4 64.1502 404.75 65.6002C405.4 66.3002 406.45 65.2502 405.8 64.5502C404.45 63.1502 403.15 61.7502 401.8 60.3002C401.15 59.6002 400.1 60.6502 400.75 61.3502Z" fill="#030235"/>
<path d="M370.3 64.1503C372.75 65.6002 375.25 66.9502 377.8 68.2002C378.65 68.6502 379.4 67.3502 378.55 66.9002C376 65.6002 373.5 64.2502 371.05 62.8503C370.2 62.3503 369.45 63.6503 370.3 64.1503Z" fill="#030235"/>
<path d="M457.3 52.7499C464.7 45.3499 472.1 37.9499 479.5 30.5499C480.2 29.8499 479.1 28.7999 478.45 29.4999C471.05 36.8999 463.65 44.2999 456.25 51.6999C455.55 52.3999 456.6 53.4499 457.3 52.7499Z" fill="#030235"/>
<path d="M464.75 56.2001C466.65 54.8001 468.55 53.4501 470.45 52.0501C471.2 51.5001 470.5 50.2001 469.7 50.7501C467.8 52.1501 465.9 53.5001 464 54.9001C463.2 55.4501 463.95 56.7501 464.75 56.2001Z" fill="#030235"/>
<path d="M434.2 42.9501C435.7 35.7001 436.85 28.4001 437.55 21.0501C437.65 20.1001 436.15 20.1001 436.05 21.0501C435.35 28.2501 434.25 35.4501 432.75 42.5501C432.55 43.5001 434 43.9001 434.2 42.9501Z" fill="#030235"/>
<path d="M476.25 88.9496C489.85 87.6996 503.4 86.4496 517 85.1996C517.95 85.0996 517.95 83.5996 517 83.6996C503.4 84.9496 489.85 86.1996 476.25 87.4496C475.3 87.4996 475.25 88.9996 476.25 88.9496Z" fill="#030235"/>
<path d="M419.1 135.4C427.55 137.25 436.15 137.2 444.55 135.3C445.5 135.1 445.1 133.65 444.15 133.85C436 135.7 427.65 135.75 419.5 133.95C418.55 133.75 418.15 135.2 419.1 135.4Z" fill="#030235"/>
<path d="M420.35 148.1C426.8 148.95 433.25 149.15 439.75 148.7C440.7 148.65 440.7 147.15 439.75 147.2C433.25 147.65 426.8 147.45 420.35 146.6C419.4 146.5 419.4 148 420.35 148.1Z" fill="#030235"/>
<path d="M466.8 130.35C476.95 137.5 487.3 144.4 497.8 151.05C498.6 151.55 499.35 150.25 498.55 149.75C488.05 143.1 477.7 136.2 467.55 129.05C466.75 128.5 466 129.8 466.8 130.35Z" fill="#030235"/>
<path d="M335.777 513.303L335.433 513.687L335.559 514.187C337.736 522.846 339.859 536.736 336.302 552.892C335.572 556.188 334.899 559.217 334.081 561.476C333.672 562.606 333.25 563.478 332.807 564.074C332.365 564.67 331.981 564.892 331.659 564.94C331.236 565.002 330.445 564.798 329.209 563.363C328.004 561.963 326.561 559.597 324.856 555.923C321.48 548.649 317.178 536.477 311.672 517.171C316.315 511.478 320.946 505.796 325.578 500.114C330.117 494.544 334.657 488.974 339.207 483.394C343.824 486.934 348.406 490.437 353.024 493.938C350.259 497.029 347.504 500.13 344.75 503.23L344.749 503.231C341.762 506.593 338.776 509.954 335.777 513.303Z" stroke="#030235" stroke-width="1.94136"/>
<path d="M304 422.05C309.95 426.65 315.65 425 327.45 427C337.5 428.7 348.8 432.45 360.8 439.95C348 454.95 335.2 470.8 322.5 487.5C319.45 491.55 316.4 495.6 313.45 499.65C318.35 500.8 324.25 502.6 330.65 505.5C336.9 508.3 342 511.45 346.05 514.3C365.1 497.7 382.1 481.65 397.25 466.5C404.25 459.5 414.15 448.8 415.7 433.65C415.8 432.8 415.8 432.05 415.8 431.3C415.45 406.15 383.8 387.95 364.55 381.25C343.5 373.95 307.3 370 297.2 387.45C291.25 397.75 294.75 414.9 304 422.05Z" fill="#2466C5"/>
<path opacity="0.26" d="M340.95 396.9C340.6 401.65 339.75 407.3 338 413.55C336.75 418 335.25 421.95 333.75 425.3C332.1 425.95 330.5 426.6 328.85 427.25C339.6 431.5 350.4 435.75 361.15 440C353.15 449.15 345.1 458.75 337 468.75C328.65 479.05 320.7 489.15 313.15 499.1C318.5 500.85 323.8 502.6 329.15 504.3C348.3 483.2 367.45 462.05 386.6 440.95C388.6 435.2 388.5 430.7 387.9 427.55C385.15 412.15 366.3 399.6 340.95 396.9Z" fill="#6B6E85"/>
<path opacity="0.23" d="M361.05 439.9C362.8 442.55 364.5 445.25 366.25 447.9C351.35 465.85 336.45 483.75 321.55 501.7C318.9 501 316.2 500.25 313.55 499.55C323.1 486.45 333.4 473 344.55 459.45C350.1 452.7 355.6 446.2 361.05 439.9Z" fill="#6B6E85"/>
<path d="M334.869 485.318L334.64 484.857L334.13 484.788C329.681 484.188 325.232 483.576 320.782 482.963L320.781 482.963C316.675 482.398 312.567 481.833 308.46 481.277C309.631 475.578 310.841 469.878 312.053 464.175C319.121 465.467 326.199 466.749 333.277 468.03C340.498 469.338 347.719 470.645 354.928 471.964C363.315 490.295 367.967 502.402 370.134 510.167C371.228 514.09 371.671 516.844 371.666 518.706C371.661 520.611 371.193 521.295 370.829 521.531C370.557 521.701 370.124 521.782 369.404 521.617C368.681 521.45 367.793 521.062 366.748 520.469C364.659 519.282 362.177 517.414 359.486 515.376C346.245 505.347 338.879 493.387 334.869 485.318Z" fill="white" stroke="#030235" stroke-width="1.94136"/>
<path d="M280.9 380.2C254 388.1 237.6 404.5 227.05 415.3C212.8 429.95 195.3 447.9 200.35 461.15C202.95 467.9 210.85 472.05 247.65 478.45C275.45 483.3 299.55 485.9 318.35 487.35C320.7 478.75 323.05 470.2 325.35 461.6C306.45 455.5 287.6 449.45 268.7 443.35C280.3 440.9 292.5 438 305.2 434.45C314.85 431.75 324.05 428.95 332.8 426C340.9 409.65 342.65 392 334.2 382C322.4 368 295.95 375.75 280.9 380.2Z" fill="#2466C5"/>
<path opacity="0.29" d="M340.75 397.5C340.5 402.45 339.65 408.799 337.35 415.799C335.95 420.049 334.35 423.749 332.75 426.799C331.4 426.899 330.05 427.049 328.7 427.149C317.3 430.899 305.15 434.449 292.3 437.749C284 439.899 275.9 441.75 268.05 443.45C287 449.4 305.95 455.299 324.9 461.249C324.5 463.299 324 465.449 323.4 467.699C322.7 470.299 321.9 472.699 321.15 474.899C295 468.449 268.85 461.999 242.7 455.549C241.5 454.099 237.55 448.849 238.15 441.899C238.8 434.349 246 429 255.2 424.1C281.8 410 326.4 400.45 340.75 397.5Z" fill="#6B6E85"/>
<path opacity="0.24" d="M254.6 444.5C259.35 444.15 264.15 443.8 268.9 443.4C287.55 449.6 306.2 455.85 324.85 462.05C324.05 465 323.25 468 322.45 470.95C299.85 462.1 277.2 453.3 254.6 444.5Z" fill="#6B6E85"/>
<path d="M273.85 266.9C281.25 262.55 294.1 256.35 311.2 254.55C337.4 251.8 357.5 261.2 365.45 265.45C364 285.1 361.75 300.8 359.95 311.6C357.8 324.5 356.05 331.65 355.25 343.5C354.25 358.35 355.5 370.55 356.65 378.55C347.95 381.25 334.8 384.2 318.6 383.85C303 383.5 290.4 380.1 281.95 377.15C284.2 359.25 283.45 345.05 282.35 335.4C281.1 324.65 279.4 319.4 277.35 306.4C274.7 289.6 274 275.85 273.85 266.9Z" fill="#D9BC22" stroke="#030235" stroke-width="2" stroke-miterlimit="10"/>
<path opacity="0.14" d="M327.95 260.5C329 264.3 330.2 269.55 331 275.85C331.55 280.1 333.8 299.35 326.8 324.75C322.5 340.4 317.95 356.95 303.05 370.55C298.25 374.95 293.6 377.9 290.2 379.75C297.75 381.7 307.6 383.55 319.25 383.65C334.5 383.8 347.1 381.05 355.85 378.35C355.35 374.6 354.7 368.95 354.45 362.15C354.25 356.2 354.25 346.7 358.35 319.95C361.6 298.9 363.9 289.85 365.05 270.8C365.2 268.6 365.25 266.75 365.35 265.5C361.7 263.35 356.95 261 351.1 259.1C345.7 257.35 340.85 256.45 336.85 256.05C333.95 257.5 330.95 259 327.95 260.5Z" fill="#6B6E85"/>
<path opacity="0.17" d="M363.9 273.649C361.1 289.499 357.4 302.299 354.5 311.199C346 337.199 340.05 354.699 324 367.499C314.05 375.449 303.7 378.799 297.05 380.399C303.8 382.299 313.35 384.149 324.9 383.899C338.2 383.599 348.95 380.599 356 378.049C355.05 371.949 353.95 362.799 354.25 351.649C354.6 337.199 356.95 328.499 359.55 312.649C361 303.349 362.85 290.049 363.9 273.649Z" fill="#6B6E85"/>
<path d="M273.55 266.65C267.05 271.15 258.7 278.25 251.4 288.8C234.95 312.7 235.4 338.05 236.05 347.4C239.05 355.45 244.2 366 253.2 376.35C258.45 382.4 266.15 391.1 279.3 396.7C283.7 398.6 287.55 399.65 290.35 400.25C292.75 398.1 295.1 395.95 297.5 393.8C289.8 384.8 282.05 375.35 274.3 365.6C268.35 358.15 262.65 350.75 257.15 343.45C257.35 337.3 258.65 326.15 265.35 314.5C269.15 307.9 273.6 303.1 277.15 299.85C275.95 288.8 274.75 277.75 273.55 266.65Z" fill="white" stroke="#030235" stroke-width="2" stroke-miterlimit="10"/>
<path opacity="0.13" d="M274.5 277.8C260.1 294.05 253.25 309.45 249.85 319.15C243.9 335.95 245.15 344.75 246.05 348.95C246.8 352.25 248.45 357.9 254.5 366.5C259.75 373.95 270.8 387.3 291.85 398.3C293.7 396.5 295.55 394.75 297.4 392.95C291.45 386.25 285.45 379.2 279.4 371.85C271.45 362.2 264.05 352.7 257.2 343.4C257.4 338.35 258.25 331.3 261.2 323.4C265.65 311.55 272.65 303.75 277 299.6C276.1 292.35 275.3 285.1 274.5 277.8Z" fill="#6B6E85"/>
<path opacity="0.16" d="M257.15 344.051C258.05 349.901 259.9 357.351 263.8 365.401C272.4 382.901 285.85 392.551 292.7 396.751C294.05 395.551 295.35 394.401 296.7 393.201C283.5 376.801 270.35 360.401 257.15 344.051Z" fill="#6B6E85"/>
<path d="M366.2 265.75C373.5 270.2 382.9 277.15 391.05 287.5C409.55 310.95 409 335.85 408.3 345.05C404.9 352.95 399.15 363.3 389.05 373.5C383.15 379.4 374.5 387.95 359.75 393.5C354.8 395.35 350.45 396.4 347.3 397C344.65 394.9 341.95 392.8 339.3 390.7C347.9 381.85 356.65 372.6 365.35 363C372 355.65 378.4 348.4 384.6 341.25C384.35 335.25 382.95 324.3 375.4 312.8C371.1 306.3 366.15 301.6 362.15 298.4C363.55 287.5 364.9 276.65 366.2 265.75Z" fill="white" stroke="#030235" stroke-width="2" stroke-miterlimit="10"/>
<path opacity="0.16" d="M365.85 277.9C372.2 284.55 380.85 295.2 387.6 310.05C390.8 317.1 396 328.55 396.1 339.35C396.45 372.2 349.95 394.8 347.25 396.1C344.6 394.4 342 392.75 339.35 391.05C354.4 374.55 369.4 358.05 384.45 341.55C384.15 336.15 382.9 326.1 376.9 315.4C371.95 306.6 365.8 300.9 361.75 297.75C363.15 291.15 364.5 284.55 365.85 277.9Z" fill="#6B6E85"/>
<path opacity="0.12" d="M384.95 341.699C384.2 346.049 382.95 350.799 381 355.699C372.2 377.899 354.4 390.049 345.4 395.249C343.25 393.849 341.15 392.449 339 391.049C354.3 374.599 369.6 358.149 384.95 341.699Z" fill="#6B6E85"/>
<path d="M377.7 345.4H254.75V423.25H377.7V345.4Z" fill="white" stroke="#030235" stroke-width="2" stroke-miterlimit="10"/>
<path d="M314.45 391.75C307.95 392.55 304.8 384.65 306.5 379.4C308.15 374.2 314.3 371.75 319.3 373.55C324.25 375.35 326.65 381.4 324.9 386.25C322.95 391.65 316.15 393.85 311.15 391.45C310.3 391.05 309.5 392.35 310.4 392.75C314.85 394.9 320.3 394.1 323.85 390.6C327.3 387.15 327.8 381.7 325.65 377.45C320.75 367.75 305.6 370.85 304.55 381.5C304 387.2 308.1 394.05 314.45 393.3C315.4 393.15 315.4 391.65 314.45 391.75Z" fill="#030235"/>
<path opacity="0.14" d="M300.9 345.201C317.55 351.001 328.9 365.85 329.25 381.8C329.7 401.8 312.9 420.601 290 422.501C319.15 422.751 348.3 423.001 377.5 423.251C377.4 397.151 377.35 371.05 377.25 345C351.8 345 326.35 345.101 300.9 345.201Z" fill="#6B6E85"/>
<path opacity="0.26" d="M377.5 344.95C377.05 360.85 373.9 373.25 371.25 381.4C367.35 393.25 364.55 401.9 356.5 409.55C345.55 420.05 331.9 422 325.9 422.5C342.95 422.65 360 422.8 377.05 423C377.1 408.15 377.2 393.3 377.3 378.4C377.3 367.25 377.4 356.1 377.5 344.95Z" fill="#6B6E85"/>
<path d="M312.6 226.55C309.85 229.9 312.5 234 312 244.95C311.75 250.4 310.85 254.8 310.15 257.75C312.5 258.85 316.65 260.4 322 260.55C328.6 260.7 333.6 258.65 336.05 257.45C334.95 255.25 333.5 251.85 332.6 247.45C330.35 236.25 334.35 231 331.05 226.85C327.2 222.05 316.3 222 312.6 226.55Z" fill="white" stroke="#030235" stroke-width="2" stroke-miterlimit="10"/>
<path d="M295.15 178.45C292 186.55 293.2 193.85 293.9 197C293.6 197.05 287.75 198.3 286.15 202.8C284.55 207.35 287.85 213.8 294.75 215.9C297.25 222 303.3 233.8 316.05 240.25C318.2 241.3 320.25 242.15 322.3 242.75C324.15 242.05 326.65 240.95 329.5 239.3C338.4 234.15 343.35 227.75 344.5 226.2C346.6 223.4 349.45 218.9 351.45 212.7C352.55 212.9 354.5 213 356.4 212.05C360.7 209.85 362.85 203 359.85 198.55C357.35 194.85 352.5 194.7 351.9 194.7C352.55 192.1 354.55 182.75 349.5 173.5C343.7 162.85 331.25 157.25 319.55 158.85C302.25 161.1 295.45 177.65 295.15 178.45Z" fill="white" stroke="#030235" stroke-width="2" stroke-miterlimit="10"/>
<path d="M311.95 239.799C315 241.599 318.35 244.399 322.1 244.099C325.2 243.849 328.65 242.049 331 240.149C331.75 239.549 330.7 238.499 329.95 239.099C327.75 240.849 324.2 242.699 321.3 242.649C318.25 242.599 315.15 240.049 312.65 238.499C311.9 237.999 311.15 239.299 311.95 239.799Z" fill="#030235"/>
<path d="M311.75 240.449C314.6 242.899 317.85 245.649 321.85 245.449C325.75 245.249 329.4 242.649 331.95 239.849C332.6 239.149 331.55 238.099 330.9 238.799C328.7 241.199 325.6 243.549 322.2 243.899C318.45 244.249 315.45 241.699 312.8 239.399C312.1 238.749 311.05 239.799 311.75 240.449Z" fill="#030235"/>
<path d="M313.65 240.75C313.65 240.7 313.65 240.7 313.65 240.75C313.35 240.3 312.8 240.2 312.45 240.55C312.45 240.55 312.45 240.55 312.4 240.6C312.1 240.85 312.1 241.4 312.4 241.65C317.9 246.9 328 248.6 331.95 240.55C332.35 239.7 331.1 238.9 330.65 239.8C327.15 247 318.3 245.25 313.5 240.6C313.5 240.95 313.5 241.3 313.5 241.65C313.5 241.65 313.5 241.65 313.55 241.6C313.15 241.55 312.75 241.5 312.35 241.45V241.5C312.85 242.3 314.15 241.55 313.65 240.75Z" fill="#030235"/>
<path d="M319.65 194.5C319 202.6 319.35 210.65 320.65 218.65C320.7 219.05 321.2 219.3 321.55 219.15C323.5 218.5 324.9 217.35 325.95 215.6C326.45 214.75 325.15 214 324.65 214.85C323.8 216.3 322.75 217.15 321.15 217.7C321.45 217.85 321.75 218.05 322.05 218.2C320.75 210.35 320.45 202.4 321.1 194.45C321.25 193.5 319.75 193.5 319.65 194.5Z" fill="#030235"/>
<path d="M310.75 202.45C310.85 202.9 311.6 205.7 310.75 206.15C309.9 206.6 307.5 204.8 306.75 202.45C306.15 200.45 306.65 197.95 307.6 197.75C308.6 197.5 310.15 200.25 310.75 202.45Z" fill="#030235" stroke="#030235" stroke-miterlimit="10"/>
<path d="M336.55 202.45C336.65 202.9 337.4 205.7 336.55 206.15C335.7 206.6 333.3 204.8 332.55 202.45C331.95 200.45 332.45 197.95 333.4 197.75C334.4 197.5 335.95 200.25 336.55 202.45Z" fill="#030235" stroke="#030235" stroke-miterlimit="10"/>
<path d="M317.85 225.25C323.95 227.85 329.5 224.2 334 220.25C334.75 219.6 333.65 218.55 332.95 219.2C329.05 222.6 324.05 226.25 318.65 223.95C317.7 223.6 316.95 224.9 317.85 225.25Z" fill="#030235"/>
<path d="M335.45 210.4C336.4 210.4 336.4 208.9 335.45 208.9C334.5 208.9 334.5 210.4 335.45 210.4Z" fill="#030235"/>
<path d="M341 207.6C341.05 207.55 341.1 207.5 341.15 207.45C341.45 207.15 341.45 206.7 341.15 206.4C340.85 206.1 340.4 206.1 340.1 206.4C340.05 206.45 340 206.5 339.95 206.55C339.65 206.85 339.65 207.3 339.95 207.6C340.25 207.9 340.7 207.9 341 207.6Z" fill="#030235"/>
<path d="M339.35 211.25C339.4 211.25 339.45 211.25 339.5 211.25C339.9 211.25 340.25 210.9 340.25 210.5C340.25 210.1 339.9 209.75 339.5 209.75C339.45 209.75 339.4 209.75 339.35 209.75C338.95 209.75 338.6 210.1 338.6 210.5C338.6 210.9 338.9 211.25 339.35 211.25Z" fill="#030235"/>
<path d="M304.85 193.5C306.75 191.9 309.55 191.85 311.45 193.4C312.2 194 313.25 192.95 312.5 192.35C309.9 190.25 306.3 190.25 303.75 192.45C303.05 193.05 304.15 194.1 304.85 193.5Z" fill="#030235"/>
<path d="M329.25 192.95C331.4 191.05 334.45 190.7 337 192.05C337.85 192.5 338.6 191.2 337.75 190.75C334.6 189.05 330.85 189.5 328.2 191.9C327.45 192.55 328.5 193.6 329.25 192.95Z" fill="#030235"/>
<path d="M305.25 210.25C306.2 210.25 306.2 208.75 305.25 208.75C304.3 208.75 304.3 210.25 305.25 210.25Z" fill="#030235"/>
<path d="M310.55 209.55C311.5 209.55 311.5 208.05 310.55 208.05C309.6 208.05 309.6 209.55 310.55 209.55Z" fill="#030235"/>
<path d="M307.9 210.7C307.85 210.75 307.8 210.8 307.75 210.85C307.45 211.15 307.45 211.6 307.75 211.9C308.05 212.2 308.5 212.2 308.8 211.9C308.85 211.85 308.9 211.8 308.95 211.75C309.25 211.45 309.25 211 308.95 210.7C308.65 210.4 308.2 210.4 307.9 210.7Z" fill="#030235"/>
<path d="M303.3 162.2C300.3 164.05 293.75 168.1 289.3 176.4C284.85 184.65 284.9 192.45 285.1 195.8C277.8 208.95 274.5 220.55 272.9 228.45C270.3 241 271.7 245.6 273.5 248.65C277.9 256.15 286.75 258 288.9 258.45C299.95 260.8 308.75 255.15 310.75 253.85C311.3 252.2 311.85 250.15 312.15 247.85C312.7 243.9 312.4 240.5 311.95 238.05C309.45 236 306.55 233.25 303.75 229.65C299.5 224.15 297.1 218.75 295.75 214.85C291.35 214.4 288.05 211.4 287.75 208.05C287.45 204.9 289.65 200.85 292.55 200.85C294.7 200.85 296.25 203.05 296.55 203.45C298.2 202.5 300.5 200.85 302.55 198.25C305.5 194.5 306 191.15 307.35 187.65C308.65 184.25 311.15 179.55 316.55 174.65C321.75 176.5 325.9 178.3 328.75 179.65C337.9 183.9 343.1 186.4 347.15 191.85C349.4 194.85 350.55 197.8 351.15 199.65C355.8 196.1 357.7 197.05 358.1 197.25C361.05 198.9 360.95 207.95 356.35 210.45C354.6 211.4 352.6 211.15 351.35 210.85C349.9 215.9 346.7 224.15 339.35 231.45C336.9 233.9 334.4 235.8 332.15 237.25C331.95 239.1 331.85 241.65 332.35 244.65C332.8 247.4 333.6 249.65 334.35 251.25C346.5 259.25 361.6 257.8 369.8 249.2C377.1 241.5 377.1 229.85 374.35 221.9C371.85 214.65 367 210.3 364.6 208.4C365.25 205.6 368.85 189 358.4 173.75C355.7 169.8 348.15 160.25 334.55 156.95C320.15 153.45 308.3 159.15 303.3 162.2Z" fill="#030235"/>
<path opacity="0.17" d="M335 182.75C340.65 189.85 342.15 196.4 342.65 199.8C344.7 214.1 336.4 225.7 332.2 231.65C328.75 236.5 325.2 239.95 322.65 242.2C324.85 248.1 327 253.95 329.2 259.85C331.45 259.1 333.7 258.35 335.95 257.6C334.9 255.75 333.8 253.45 332.95 250.65C331.4 245.65 331.3 241.25 331.45 238.25C334.2 236.3 337.4 233.65 340.5 230.15C346.7 223.15 349.8 215.95 351.4 211.1C352.4 211.3 354.55 211.55 356.6 210.4C360.9 207.95 360.2 201.85 360.15 201.45C360 200.15 359.7 198.05 358.2 197.2C356.45 196.25 353.55 197.15 351.25 199.85C350.55 197.4 348.55 191.75 343.15 187.25C340.15 184.75 337.1 183.45 335 182.75Z" fill="#6B6E85"/>
<path opacity="0.19" d="M320.35 194.95C320.05 194.9 319.05 199.25 316 218.45C317.75 218.45 319.5 218.45 321.25 218.45C320.9 215.9 320.5 212.2 320.3 207.7C320.05 200 320.65 195 320.35 194.95Z" fill="#6B6E85"/>
<path opacity="0.54" d="M364.3 208.9C363.45 209.4 366.65 213.7 366.2 220.1C366.05 222.1 365.75 226.65 362.15 229.7C361.9 229.9 356.55 234.3 351.25 231.5C348.1 229.85 346.2 226.35 346.3 222.55C344.8 225.35 342.35 229.05 338.5 232.65C336.1 234.9 333.75 236.55 331.7 237.8C331.55 240 331.55 243 332.35 246.4C332.8 248.25 333.35 249.85 333.9 251.15C335.45 252.15 337.75 253.5 340.75 254.55C342.65 255.2 353.1 258.85 363.3 253.8C365.1 252.9 369.1 250.85 372 246.45C372.35 245.9 373.65 243.95 374.6 240.65C378 229.35 373 219.15 372.55 218.3C369.8 212.75 365.35 208.3 364.3 208.9Z" fill="#030235"/>
<path opacity="0.35" d="M295.7 215.05C295.25 215.1 296.25 219.2 295.15 223.25C294.35 226.25 291.8 231.15 287.45 232.15C282.9 233.15 277.25 229.8 274.65 223.55C273.45 226.3 271.85 230.7 271.6 236.3C271.45 239.95 271.25 243.85 273.05 247.7C277.1 256.3 289 259.65 297.85 258.85C303.75 258.3 308.2 256 310.6 254.45C311.2 252.75 311.8 250.7 312.2 248.35C312.85 244.3 312.7 240.75 312.35 238.15C308.4 235.3 305.7 232.35 304 230.2C301.6 227.15 298.35 223.05 296.7 217.35C296.45 216.7 296 215 295.7 215.05Z" fill="#030235"/>
</svg>
