<svg width="72" height="42" viewBox="0 0 72 42" fill="none" xmlns="http://www.w3.org/2000/svg">
<path d="M5.42602 6.97116H10.6429L15.451 20.8559C17.8262 14.9986 20.9616 7.21276 21.4724 5.90867C23.0977 1.76054 24.2531 0.230477 28.7136 0.230477H37.6959L33.3511 11.6379L36.8269 20.8559C37.078 20.1454 37.9971 18.079 39.6654 13.6543C44.0632 1.99101 44.5895 0 50.7268 0H71.9902C72.1755 4.4247 69.6725 5.99172 68.3987 6.22219H56.5229L53.3368 14.1728H66.9503C66.4865 18.367 64.1698 20.0685 63.0686 20.3951H51.2513L44.5895 38.1975C43.8943 39.465 41.4845 42 37.4062 42C33.3281 42 30.9954 39.1962 30.3389 37.7942L26.168 28.9218C25.4149 31.0151 23.7465 35.7202 23.0977 37.7942C22.2867 40.3868 19.6799 42 15.451 42C12.068 42 10.1022 39.1962 9.54229 37.7942C6.56859 30.2277 0.551631 14.9103 0.273585 14.1728C-0.074026 13.251 -0.318721 11.1651 1.02344 9.30793C2.35586 7.46424 3.685 7.06093 5.42602 6.97116Z" fill="#030235"/>
</svg>
