<svg width="50" height="29" viewBox="0 0 50 29" fill="none" xmlns="http://www.w3.org/2000/svg">
<path d="M3.76807 4.81342H7.39093L10.7299 14.4005C12.3793 10.3562 14.5566 4.98024 14.9114 4.07979C16.0401 1.21561 16.8424 0.159139 19.94 0.159139H26.1777L23.1605 8.03568L25.5743 14.4005C25.7486 13.9099 26.3869 12.4831 27.5454 9.42797C30.5995 1.37475 30.9649 0 35.2269 0H49.9932C50.1219 3.05515 48.3837 4.13714 47.4991 4.29628H39.252L37.0394 9.78598H46.4932C46.1712 12.682 44.5624 13.8569 43.7977 14.0823H35.5912L30.9649 26.3745C30.4822 27.2496 28.8087 29 25.9765 29C23.1445 29 21.5246 27.064 21.0687 26.096L18.1722 19.9698C17.6492 21.4152 16.4906 24.6639 16.0401 26.096C15.4769 27.8861 13.6666 29 10.7299 29C8.38056 29 7.01541 27.064 6.62659 26.096C4.56152 20.8715 0.383077 10.2952 0.189989 9.78598C-0.051407 9.1495 -0.221334 7.70922 0.710722 6.42691C1.63601 5.15388 2.55903 4.87541 3.76807 4.81342Z" fill="white"/>
</svg>
