<svg width="653" height="504" viewBox="0 0 653 504" fill="none" xmlns="http://www.w3.org/2000/svg">
<g clip-path="url(#clip0_170_22512)">
<path d="M544.417 497.836H438.084H407.923C406.104 497.836 406.104 494.916 407.923 494.916C443.351 494.916 478.78 494.916 514.256 494.916C524.325 494.916 534.394 494.916 544.417 494.916C546.188 494.916 546.188 497.836 544.417 497.836Z" fill="#D0D3D8"/>
<path d="M410.058 488.437H337.847C336.023 488.437 336.023 485.517 337.847 485.517C361.933 485.517 386.019 485.517 410.058 485.517C411.882 485.517 411.882 488.437 410.058 488.437Z" fill="#D0D3D8"/>
<path d="M241.529 132.62C241.482 134.391 241.389 136.115 241.156 137.885C241.016 138.77 239.62 138.77 239.76 137.885C239.992 136.161 240.132 134.391 240.132 132.62C240.132 131.735 241.529 131.735 241.529 132.62Z" fill="#D0D3D8"/>
<path d="M240.505 133.318H150.142C149.257 133.318 149.257 131.92 150.142 131.92C180.263 131.92 210.384 131.92 240.505 131.92C241.389 131.92 241.389 133.318 240.505 133.318Z" fill="#D0D3D8"/>
<path d="M150.98 133.179V136.254C150.98 137.14 149.584 137.14 149.584 136.254C149.584 135.229 149.584 134.204 149.584 133.179C149.584 132.247 150.98 132.247 150.98 133.179Z" fill="#D0D3D8"/>
<path d="M239.666 138.397H150.468C149.583 138.397 149.583 136.999 150.468 136.999C180.216 136.999 209.965 136.999 239.666 136.999C240.598 136.999 240.598 138.397 239.666 138.397Z" fill="#D0D3D8"/>
<path d="M239.806 116.545C238.642 121.81 237.665 127.122 236.873 132.434C236.733 133.319 235.383 132.946 235.523 132.061C236.361 126.749 237.339 121.437 238.456 116.172C238.689 115.287 239.992 115.66 239.806 116.545Z" fill="#D0D3D8"/>
<path d="M238.968 116.452C232.87 116.638 226.492 117.384 220.393 116.638C219.509 116.545 219.509 115.147 220.393 115.24C226.492 115.986 232.87 115.24 238.968 115.054C239.853 115.007 239.853 116.405 238.968 116.452Z" fill="#D0D3D8"/>
<path d="M221.091 116.918C221.743 121.95 222.348 126.982 223 132.061C223.093 132.946 221.696 132.946 221.603 132.061C220.952 127.029 220.346 121.996 219.695 116.918C219.602 116.032 220.998 116.032 221.091 116.918Z" fill="#D0D3D8"/>
<path d="M232.032 114.914C232.963 114.495 234.08 114.076 234.778 113.33C235.989 112.119 235.896 110.488 236.082 108.904C236.361 106.807 237.525 104.943 237.665 102.8C238.037 102.986 238.363 103.219 238.735 103.406C234.406 106.201 230.588 110.162 230.728 115.66C230.775 116.545 229.378 116.545 229.331 115.66C229.145 109.649 233.289 105.269 238.037 102.194C238.456 101.914 239.108 102.287 239.108 102.8C239.015 104.058 238.642 105.176 238.223 106.388C237.618 108.065 237.618 109.696 237.292 111.42C236.78 113.982 235.011 115.101 232.776 116.126C231.938 116.452 231.24 115.287 232.032 114.914Z" fill="#D0D3D8"/>
<path d="M230.681 108.95C231.193 105.409 228.866 102.008 227.562 98.8858C226.538 96.4163 225.793 93.9002 225.933 91.1978C226.398 91.2444 226.864 91.3376 227.283 91.3842C225.56 99.4449 223.419 107.086 227.097 115.007C227.469 115.799 226.259 116.545 225.886 115.706C224.21 112.072 223.326 108.158 223.512 104.151C223.745 99.7245 225.002 95.3446 225.933 91.0114C226.072 90.2193 227.329 90.4057 227.283 91.1978C227.003 97.6743 232.962 102.893 231.985 109.323C231.892 110.208 230.542 109.835 230.681 108.95Z" fill="#D0D3D8"/>
<path d="M207.916 81.9722C207.358 98.9324 207.171 115.846 207.497 132.806C207.497 133.691 206.101 133.691 206.101 132.806C205.821 115.846 205.961 98.8858 206.52 81.9722C206.52 81.0403 207.916 81.0403 207.916 81.9722Z" fill="#D0D3D8"/>
<path d="M206.846 82.2052C204.844 80.5278 201.445 81.2733 199.211 81.9722C198.373 82.2518 198 80.9005 198.838 80.621C201.678 79.7357 205.402 79.1766 207.823 81.2267C208.522 81.7858 207.544 82.7643 206.846 82.2052Z" fill="#D0D3D8"/>
<path d="M199.77 81.9722C199.676 98.6994 199.583 115.38 199.49 132.107C199.49 132.992 198.093 132.992 198.093 132.107C198.187 115.38 198.28 98.6994 198.373 81.9722C198.373 81.0403 199.77 81.0403 199.77 81.9722Z" fill="#D0D3D8"/>
<path d="M205.821 93.2477C203.959 91.7101 201.212 91.8499 199.49 93.4807C198.838 94.0864 197.86 93.1079 198.512 92.5022C200.84 90.3123 204.378 90.2657 206.799 92.2692C207.497 92.8283 206.52 93.8068 205.821 93.2477Z" fill="#D0D3D8"/>
<path d="M206.427 87.8894C204.379 86.1188 201.446 86.0722 199.304 87.703C198.559 88.2621 197.907 87.0041 198.606 86.4916C201.306 84.4881 204.937 84.7676 207.451 86.9109C208.103 87.5167 207.079 88.4951 206.427 87.8894Z" fill="#D0D3D8"/>
<path d="M198.326 93.9468C196.231 93.9468 194.183 94.1798 192.134 94.6923C192.32 94.4593 192.46 94.2263 192.646 94.04C192.367 106.62 192.507 119.154 193.158 131.734C193.205 132.62 191.808 132.62 191.762 131.734C191.11 119.201 190.97 106.62 191.25 94.04C191.25 93.7604 191.482 93.4342 191.762 93.3877C193.95 92.8285 196.091 92.5956 198.326 92.5956C199.257 92.549 199.257 93.9468 198.326 93.9468Z" fill="#D0D3D8"/>
<path d="M198 107.18C196.138 105.968 193.904 105.922 191.995 107.04C191.203 107.506 190.505 106.295 191.296 105.829C193.624 104.431 196.464 104.477 198.699 105.968C199.444 106.434 198.745 107.646 198 107.18Z" fill="#D0D3D8"/>
<path d="M198.233 100.517C196.603 99.7247 194.741 99.6782 193.065 100.377C192.227 100.703 191.529 99.5384 192.367 99.1656C194.555 98.2337 196.79 98.2803 198.931 99.3054C199.723 99.7248 199.024 100.936 198.233 100.517Z" fill="#D0D3D8"/>
<path d="M188.177 131.874C188.177 131.082 188.689 128.193 188.224 127.634C187.572 126.842 183.987 127.121 183.056 127.075C179.844 126.888 176.585 126.749 173.373 126.702C166.902 126.609 160.431 126.842 154.006 127.354C154.239 127.121 154.472 126.888 154.704 126.655C154.425 128.752 154.285 130.849 154.332 132.992C154.332 133.877 152.935 133.877 152.935 132.992C152.935 130.849 153.028 128.752 153.308 126.655C153.354 126.236 153.587 126.003 154.006 125.957C161.967 125.351 170.021 125.164 177.982 125.444C179.844 125.491 181.66 125.584 183.522 125.724C184.872 125.817 187.386 125.537 188.643 126.143C190.458 126.982 189.62 130.383 189.574 131.921C189.574 132.759 188.177 132.806 188.177 131.874Z" fill="#D0D3D8"/>
<path d="M183.382 125.491C183.475 124.978 183.941 123.441 183.848 122.928C183.522 121.531 182.172 121.857 181.148 121.857C179.472 121.81 177.749 121.81 176.073 121.764C172.535 121.717 168.997 121.624 165.412 121.577C162.014 121.531 158.615 121.437 155.217 121.391C153.355 121.344 151.493 121.344 149.677 121.298C148.373 121.298 147.629 120.832 147.21 122.509C147.023 123.255 147.163 124.233 147.21 124.978C147.256 125.864 145.86 125.864 145.813 124.978C145.766 123.767 145.394 121.391 146.372 120.366C147.256 119.48 149.072 119.9 150.142 119.946C155.403 120.04 160.617 120.133 165.878 120.226C170.952 120.319 176.073 120.412 181.148 120.505C182.172 120.505 184.36 120.086 185.105 121.018C185.989 122.09 184.919 124.746 184.732 125.91C184.546 126.749 183.196 126.376 183.382 125.491Z" fill="#D0D3D8"/>
<path d="M154.285 127.309C152.19 127.355 150.049 127.402 147.954 127.262C146.93 127.169 145.906 126.796 145.999 125.585C146.092 124.699 147.489 124.699 147.395 125.585C147.349 126.097 153.68 125.957 154.285 125.911C155.17 125.864 155.17 127.262 154.285 127.309Z" fill="#D0D3D8"/>
<path d="M179.285 120.785C179.332 119.993 179.565 118.921 179.471 118.129C179.378 117.197 179.611 117.057 178.54 116.917C177.051 116.731 175.142 117.243 173.652 117.337C170.533 117.57 167.367 117.709 164.248 117.756C161.129 117.803 157.963 117.803 154.844 117.663C153.448 117.616 151.772 117.243 150.375 117.43C149.723 117.15 149.211 117.337 148.885 117.942C148.373 118.175 148.187 118.595 148.233 119.107C148.094 119.48 148.047 119.946 147.908 120.365C147.582 121.204 146.232 120.831 146.557 119.993C146.976 118.967 146.697 117.43 147.535 116.545C148.28 115.752 149.351 115.939 150.375 115.985C154.984 116.218 159.639 116.358 164.248 116.312C168.717 116.218 173.187 115.985 177.656 115.566C178.587 115.473 180.03 115.1 180.682 116.032C181.427 117.15 180.775 119.527 180.682 120.738C180.589 121.67 179.192 121.67 179.285 120.785Z" fill="#D0D3D8"/>
<path d="M143.578 166.913V187.648C143.578 188.533 142.181 188.533 142.181 187.648C142.181 180.752 142.181 173.809 142.181 166.913C142.181 166.028 143.578 166.028 143.578 166.913Z" fill="#D0D3D8"/>
<path d="M142.414 166.913H106.101C105.217 166.913 105.217 165.515 106.101 165.515C118.206 165.515 130.31 165.515 142.414 165.515C143.299 165.515 143.299 166.913 142.414 166.913Z" fill="#D0D3D8"/>
<path d="M106.753 166.448V187.182C106.753 188.068 105.357 188.068 105.357 187.182C105.357 180.286 105.357 173.344 105.357 166.448C105.357 165.563 106.753 165.563 106.753 166.448Z" fill="#D0D3D8"/>
<path d="M142.88 188.813H106.567C105.682 188.813 105.682 187.415 106.567 187.415C118.671 187.415 130.775 187.415 142.88 187.415C143.764 187.415 143.764 188.813 142.88 188.813Z" fill="#D0D3D8"/>
<path d="M127.051 165.516C127.051 164.304 126.958 163.186 126.632 162.021C126.493 161.508 126.306 160.716 125.981 160.344C125.841 159.878 125.515 159.738 124.956 159.924C124.211 159.598 123.839 159.831 123.792 160.67C123.234 162.627 123.141 164.863 122.861 166.913C122.722 167.799 121.372 167.426 121.511 166.541C121.791 164.49 121.884 162.301 122.442 160.297C122.722 159.179 123.56 158.014 124.817 157.921C127.936 157.734 128.494 163.419 128.494 165.516C128.401 166.401 127.005 166.401 127.051 165.516Z" fill="#D0D3D8"/>
<path d="M141.297 169.942V185.318C141.297 186.203 139.9 186.203 139.9 185.318C139.9 180.193 139.9 175.067 139.9 169.942C139.9 169.057 141.297 169.057 141.297 169.942Z" fill="#D0D3D8"/>
<path d="M139.853 169.942H108.196C107.312 169.942 107.312 168.544 108.196 168.544C118.764 168.544 129.332 168.544 139.853 168.544C140.738 168.544 140.738 169.942 139.853 169.942Z" fill="#D0D3D8"/>
<path d="M109.081 169.476V185.784C109.081 186.669 107.685 186.669 107.685 185.784C107.685 180.332 107.685 174.927 107.685 169.476C107.685 168.59 109.081 168.59 109.081 169.476Z" fill="#D0D3D8"/>
<path d="M140.319 186.017H110.058C109.174 186.017 109.174 184.619 110.058 184.619C120.161 184.619 130.263 184.619 140.319 184.619C141.203 184.619 141.203 186.017 140.319 186.017Z" fill="#D0D3D8"/>
<path d="M139.015 179.82C137.991 178.329 137.06 178.003 136.269 178.748C136.129 178.841 136.036 178.934 135.896 179.028C135.57 179.167 135.338 179.4 135.012 179.494C134.453 179.68 133.801 179.633 133.243 179.4C132.824 179.214 132.451 178.888 132.312 178.422C132.079 177.676 132.637 177.537 132.684 176.884C132.917 176.605 132.824 176.325 132.405 175.952C132.312 174.881 131.66 174.648 130.542 175.3C130.263 175.3 129.984 175.393 129.751 175.347C128.913 175.207 128.82 174.927 128.215 174.415C126.259 172.831 124.071 173.623 123.559 176.139C123.513 176.465 123.28 178.608 123.652 178.841C124.025 178.375 124.397 177.956 124.77 177.49C123.559 177.676 122.675 178.329 122.163 179.354C121.883 179.82 121.278 179.773 120.952 179.354C120.021 178.375 119.09 178.329 118.159 179.261C117.833 178.934 117.507 178.608 117.181 178.282C117.554 177.956 117.88 177.63 118.252 177.304C119.462 176.279 119.369 175.114 117.926 173.762C115.971 173.856 114.947 175.766 115.785 177.49C116.855 179.587 119.416 179.866 121.511 179.68V181.078C118.485 181.264 115.412 181.45 112.386 181.637C111.502 181.683 111.502 180.286 112.386 180.239C115.412 180.053 118.485 179.866 121.511 179.68C122.395 179.633 122.395 180.985 121.511 181.078C119.09 181.311 116.436 180.845 114.9 178.701C113.69 176.977 113.783 174.368 115.552 173.017C116.902 171.992 118.95 172.178 120.068 173.53C121.744 175.626 119.788 177.909 118.206 179.307C117.554 179.913 116.576 178.981 117.228 178.329C118.718 176.745 120.999 177.024 122.209 178.701H120.999C122.163 176.791 124.351 175.393 126.539 176.558C128.215 177.49 128.82 179.913 127.284 181.311C125.701 182.755 123.42 181.637 122.582 180.006C121.651 178.142 121.837 175.207 123.187 173.53C124.537 171.852 126.911 171.666 128.587 172.924C129.751 173.809 129.053 173.949 131.008 173.809C131.66 173.762 132.218 173.623 132.87 173.809C133.569 173.995 134.22 174.415 134.546 175.114C134.779 175.626 134.872 176.092 134.639 176.651C134.593 176.838 134.081 177.257 134.127 177.397C134.313 178.422 137.014 176.558 137.479 176.465C139.574 176.139 140.971 178.375 140.365 180.192C140.086 181.031 138.736 180.705 139.015 179.82Z" fill="#D0D3D8"/>
<path d="M99.1179 140.447V156.476C99.1179 157.361 97.7213 157.361 97.7213 156.476C97.7213 151.117 97.7213 145.806 97.7213 140.447C97.7213 139.562 99.1179 139.562 99.1179 140.447Z" fill="#D0D3D8"/>
<path d="M97.6286 140.355H71.9305C71.0459 140.355 71.0459 138.957 71.9305 138.957C80.4965 138.957 89.0626 138.957 97.6286 138.957C98.5597 138.957 98.5597 140.355 97.6286 140.355Z" fill="#D0D3D8"/>
<path d="M98.0475 157.595H72.3494C71.4648 157.595 71.4648 156.197 72.3494 156.197C80.9154 156.197 89.4815 156.197 98.0475 156.197C98.9321 156.197 98.9321 157.595 98.0475 157.595Z" fill="#D0D3D8"/>
<path d="M72.6287 140.261V156.709C72.6287 157.594 71.2319 157.594 71.2319 156.709C71.2319 151.211 71.2319 145.759 71.2319 140.261C71.2319 139.33 72.6287 139.33 72.6287 140.261Z" fill="#D0D3D8"/>
<path d="M97.5354 141.054V156.29C97.5354 157.175 96.1387 157.175 96.1387 156.29C96.1387 151.211 96.1387 146.133 96.1387 141.054C96.1387 140.122 97.5354 140.122 97.5354 141.054Z" fill="#D0D3D8"/>
<path d="M97.0231 156.383H72.4889C71.6043 156.383 71.6043 154.985 72.4889 154.985C80.6825 154.985 88.8295 154.985 97.0231 154.985C97.9542 154.985 97.9542 156.383 97.0231 156.383Z" fill="#D0D3D8"/>
<path d="M96.6511 141.333H72.9084C72.0238 141.333 72.0238 139.935 72.9084 139.935C80.8226 139.935 88.7368 139.935 96.6511 139.935C97.5356 139.935 97.5356 141.333 96.6511 141.333Z" fill="#D0D3D8"/>
<path d="M73.2339 140.821V155.451C73.2339 156.337 71.8372 156.337 71.8372 155.451C71.8372 150.559 71.8372 145.667 71.8372 140.821C71.8372 139.936 73.2339 139.936 73.2339 140.821Z" fill="#D0D3D8"/>
<path d="M92.1353 152.702C88.2712 150.838 83.8951 149.953 79.9844 152.236C79.193 152.702 78.4947 151.491 79.2861 151.025C83.6157 148.462 88.504 149.394 92.8336 151.491C93.6716 151.864 92.9267 153.075 92.1353 152.702Z" fill="#D0D3D8"/>
<path d="M92.135 150.745C92.973 149.72 90.8315 149.394 90.5521 148.835C90.3194 148.416 90.6453 147.111 90.5056 147.157C90.0866 147.251 89.621 146.971 89.621 146.505C89.6676 144.315 87.2933 147.81 87.3864 147.67C87.1071 147.996 86.8278 148.322 86.3622 148.509C85.7104 148.788 84.3138 148.043 83.9414 148.322C83.5224 148.695 82.9637 148.509 82.7775 147.996C82.4051 147.856 82.0326 147.717 81.6136 147.623C81.6602 148.229 80.8222 148.555 80.4032 148.136C79.1462 149.114 78.96 149.907 79.8911 150.466C80.5895 151.071 79.5652 152.05 78.9134 151.444C77.703 150.419 76.865 148.648 77.9823 147.204C78.9134 145.993 80.4498 146.086 81.4274 147.157C81.0084 147.344 80.636 147.484 80.217 147.67C80.1239 146.645 80.7291 145.806 81.8464 145.713C83.0568 145.62 83.7552 146.645 84.1276 147.67C83.7552 147.577 83.3362 147.484 82.9637 147.344C83.7552 146.692 83.8948 146.971 84.7794 146.924C87.1537 146.831 86.4553 145.34 87.9916 144.455C89.5279 143.57 91.0177 144.921 91.0177 146.505C90.7384 146.272 90.4125 146.039 90.1332 145.853C90.8315 145.713 91.6695 145.666 92.135 146.272C92.6471 146.924 91.8557 147.437 92.0419 147.903C92.3213 148.648 93.6713 148.416 93.9972 149.394C94.3231 150.326 93.6713 151.165 93.1127 151.817C92.554 152.469 91.5764 151.444 92.135 150.745Z" fill="#D0D3D8"/>
<path d="M86.5484 138.491C86.8278 137.885 86.9674 137.28 86.8277 136.627C86.7812 136.208 86.4088 134.857 85.757 135.043C85.2915 135.183 84.8259 136.394 84.7328 136.814C84.5001 137.559 84.4535 138.258 84.5467 139.05C84.6398 139.936 83.2432 139.936 83.15 139.05C83.0104 137.792 83.1966 136.581 83.8018 135.463C84.2673 134.531 85.1518 133.273 86.3622 133.645C87.2933 133.925 87.8985 135.09 88.1313 135.975C88.4106 137.093 88.2709 138.212 87.7588 139.237C87.3398 140.029 86.176 139.33 86.5484 138.491Z" fill="#D0D3D8"/>
<path d="M97.0698 164.444V185.831C97.0698 186.716 95.6732 186.716 95.6732 185.831C95.6732 178.702 95.6732 171.573 95.6732 164.444C95.6732 163.512 97.0698 163.512 97.0698 164.444Z" fill="#D0D3D8"/>
<path d="M96.3715 163.931H74.7237C73.8392 163.931 73.8392 162.534 74.7237 162.534C81.9396 162.534 89.1556 162.534 96.3715 162.534C97.3026 162.534 97.3026 163.931 96.3715 163.931Z" fill="#D0D3D8"/>
<path d="M75.4219 163.233V185.784C75.4219 186.669 74.0255 186.669 74.0255 185.784C74.0255 178.283 74.0255 170.734 74.0255 163.233C74.0255 162.347 75.4219 162.347 75.4219 163.233Z" fill="#D0D3D8"/>
<path d="M95.8129 187.414H75.3289C74.4444 187.414 74.4444 186.017 75.3289 186.017C82.1724 186.017 88.9694 186.017 95.8129 186.017C96.6975 186.017 96.6975 187.414 95.8129 187.414Z" fill="#D0D3D8"/>
<path d="M89.4348 171.573C89.7607 174.275 88.0381 177.21 85.1517 177.537C82.1256 177.863 79.891 175.533 79.9841 172.598C80.0306 171.712 81.4273 171.712 81.3807 172.598C81.2876 174.787 82.9636 176.558 85.2448 176.092C87.3398 175.673 88.2243 173.529 88.0381 171.573C87.945 170.687 89.3417 170.687 89.4348 171.573Z" fill="#D0D3D8"/>
<path d="M84.7328 177.211C84.8259 177.863 84.407 178.376 84.5932 178.981C84.8725 179.913 86.0829 180.799 86.6881 181.497C87.7123 182.709 88.4572 183.92 88.5037 185.551C88.5503 186.436 87.1537 186.436 87.1071 185.551C87.014 183.408 85.1984 182.15 83.9879 180.566C83.6155 180.1 83.2431 179.587 83.1034 179.028C82.9637 178.376 83.4293 177.863 83.3362 177.211C83.2431 176.326 84.6397 176.326 84.7328 177.211Z" fill="#D0D3D8"/>
<path d="M87.9451 177.163C89.5745 177.07 92.6471 176.045 91.9022 173.762C91.5298 172.551 89.9935 172.504 89.3417 171.665C88.4572 170.594 89.2021 169.988 89.9004 169.196C90.5522 168.45 91.9022 168.171 90.0866 166.54C89.0624 165.608 87.3864 166.773 86.5484 167.472C86.0363 167.938 85.9432 168.45 85.2449 168.776C84.7794 169.009 84.1742 169.103 83.6621 168.916C82.8241 168.544 81.8929 166.074 81.0084 169.149C80.9153 169.522 80.4963 169.755 80.1705 169.615C80.1239 170.594 80.0773 171.526 80.0773 172.504C80.636 173.203 79.6583 174.181 79.0997 173.482C78.2151 172.364 77.191 170.966 77.8427 169.475C78.3548 168.357 79.4721 167.938 80.5895 168.264C80.3101 168.404 80.0308 168.59 79.7515 168.73C80.1239 167.472 80.7291 166.167 82.1723 166.074C82.6378 166.027 83.0568 166.121 83.4293 166.354C83.3362 166.307 83.9879 167.053 83.9879 167.053C84.9656 167.565 85.2449 166.68 85.8036 166.121C86.7812 165.049 87.5726 164.443 89.1555 164.676C90.3659 164.863 92.0884 165.701 92.5074 166.959C93.0195 168.45 91.7625 168.87 91.2039 169.988C90.5987 170.221 90.5987 170.5 91.2504 170.827C91.3901 171.106 91.5763 171.246 91.8091 171.339C91.9953 171.479 92.2747 171.572 92.4609 171.759C92.8333 172.178 93.1126 172.597 93.2988 173.11C94.3696 176.511 90.878 178.328 88.0847 178.515C87.0605 178.608 87.0605 177.21 87.9451 177.163Z" fill="#D0D3D8"/>
<path d="M87.4333 163.092C87.4799 162.394 87.7126 161.135 86.8747 160.716C85.9902 160.297 86.1299 161.648 86.223 162.114C86.4092 162.999 85.0591 163.372 84.8729 162.487C84.7333 161.741 84.6402 160.903 85.0126 160.204C85.385 159.551 86.0833 159.179 86.7816 159.272C88.6902 159.505 88.923 161.555 88.7833 163.092C88.7833 163.978 87.3868 163.978 87.4333 163.092Z" fill="#D0D3D8"/>
<path d="M95.3472 164.304V184.852C95.3472 185.737 93.9508 185.737 93.9508 184.852C93.9508 178.002 93.9508 171.153 93.9508 164.304C93.9508 163.372 95.3472 163.372 95.3472 164.304Z" fill="#D0D3D8"/>
<path d="M94.5092 185.877H75.934C75.0495 185.877 75.0495 184.479 75.934 184.479C82.1258 184.479 88.3175 184.479 94.5092 184.479C95.3937 184.479 95.3937 185.877 94.5092 185.877Z" fill="#D0D3D8"/>
<path d="M75.4217 185.365C75.4217 178.189 75.4217 170.967 75.4217 163.792C75.4217 162.907 76.8184 162.907 76.8184 163.792V185.365C76.8184 186.25 75.4217 186.25 75.4217 185.365Z" fill="#D0D3D8"/>
<path d="M94.1838 164.491H75.7947C74.9102 164.491 74.9102 163.093 75.7947 163.093C81.9399 163.093 88.0386 163.093 94.1838 163.093C95.0683 163.093 95.0683 164.491 94.1838 164.491Z" fill="#D0D3D8"/>
<path d="M395.791 140.86C393.397 141.283 389.62 142.268 385.66 144.756C383.173 146.306 378.107 150.061 374.93 156.961C373.778 159.402 371.199 165.082 372.489 172.124C374.377 182.545 383.357 187.756 384.785 188.554C389.344 181.465 393.857 174.33 398.416 167.242C397.495 158.464 396.62 149.685 395.791 140.86Z" fill="#2466C5"/>
<path d="M399.39 166.186C406.118 162.626 412.801 159.066 419.529 155.461C421.004 157.264 423.769 161.274 423.723 166.682C423.723 167.898 423.584 169.025 423.354 170.061C415.335 168.754 407.363 167.448 399.39 166.186Z" fill="#D9BC22"/>
<path d="M326.39 198.389C327.179 209.371 327.925 220.399 328.715 231.381C331.524 231.194 334.332 230.96 337.096 230.773C336.175 219.605 335.253 208.483 334.332 197.314C331.655 197.688 329.022 198.015 326.39 198.389Z" fill="#2466C5"/>
<path d="M342.936 209.801C343.375 216.685 343.813 223.522 344.295 230.407C347.101 230.122 349.907 229.885 352.67 229.6C352.056 222.715 351.486 215.878 350.872 208.993C348.198 209.231 345.567 209.516 342.936 209.801Z" fill="#D9BC22"/>
<path d="M449.03 251.777C402.669 256.025 356.356 260.226 309.995 264.474C305.742 196.692 301.443 128.911 297.19 61.0822C343.41 59.4484 389.677 57.8145 435.898 56.1807C440.291 121.395 444.684 186.609 449.03 251.777V251.777Z" stroke="#030235" stroke-width="1.64647" stroke-miterlimit="10"/>
<path d="M306.755 88.1427C325.889 87.071 345.07 86.6517 364.25 86.8846C365.135 86.8846 365.135 85.4868 364.25 85.4868C345.07 85.2539 325.889 85.6732 306.755 86.7449C305.871 86.7915 305.871 88.1893 306.755 88.1427Z" fill="#030235"/>
<path d="M309.223 100.909C322.957 99.4642 336.737 98.7187 350.517 98.7187C351.401 98.7187 351.401 97.3209 350.517 97.3209C336.737 97.3209 322.957 98.0198 309.223 99.5108C308.338 99.604 308.292 101.002 309.223 100.909Z" fill="#030235"/>
<path d="M310.48 124.719C328.822 122.808 347.211 121.737 365.647 121.597C366.531 121.597 366.531 120.199 365.647 120.199C347.211 120.339 328.822 121.411 310.48 123.321C309.595 123.414 309.595 124.812 310.48 124.719Z" fill="#030235"/>
<path d="M385.805 188.459C376.774 184.964 371.42 174.947 372.304 165.441C373.236 155.797 380.405 147.549 389.018 143.682C394.93 141.026 401.448 140.467 407.267 143.589C411.829 146.012 415.74 149.739 418.487 154.119C424.213 163.252 423.794 174.294 417.742 183.24C414.11 188.599 407.267 190.136 401.261 191.068C395.302 192 389.018 191.674 383.99 187.993C383.245 187.48 382.546 188.692 383.291 189.204C387.947 192.606 393.673 193.305 399.26 192.745C404.8 192.186 411.364 190.975 415.833 187.434C420.256 183.939 422.909 177.323 423.84 171.918C424.725 166.746 423.747 161.528 421.559 156.775C416.671 146.198 405.405 137.718 393.44 140.654C383.105 143.17 373.98 151.51 371.466 161.994C368.766 173.129 374.586 185.57 385.386 189.763C386.271 190.136 386.643 188.785 385.805 188.459Z" fill="#030235"/>
<path d="M395.628 140.886C396.187 149.506 396.746 158.126 397.351 166.746C397.397 167.631 398.794 167.631 398.747 166.746C398.189 158.126 397.63 149.506 397.025 140.886C396.978 140.001 395.582 140.001 395.628 140.886Z" fill="#030235"/>
<path d="M398.654 167.585C405.731 163.718 412.714 159.664 419.604 155.377C420.349 154.911 419.651 153.7 418.906 154.166C412.062 158.452 405.079 162.506 397.956 166.373C397.165 166.839 397.863 168.051 398.654 167.585Z" fill="#030235"/>
<path d="M398.934 167.818C406.941 167.818 414.855 169.728 422.723 171.08C423.608 171.219 423.98 169.868 423.095 169.728C415.135 168.377 407.081 166.42 398.934 166.42C398.049 166.42 398.049 167.818 398.934 167.818Z" fill="#030235"/>
<path d="M397.723 166.886C393.254 174.295 388.785 181.657 384.269 189.065C383.803 189.857 385.014 190.556 385.479 189.764C389.949 182.356 394.418 174.994 398.934 167.585C399.399 166.84 398.189 166.094 397.723 166.886Z" fill="#030235"/>
<path d="M318.441 232.909C338.692 231.371 358.897 229.601 379.055 227.504C379.939 227.411 379.939 226.013 379.055 226.106C358.85 228.156 338.645 229.973 318.441 231.511C317.556 231.604 317.556 233.002 318.441 232.909Z" fill="#030235"/>
<path d="M325.331 198.57C326.075 209.286 326.867 220.049 327.612 230.766C327.658 231.651 329.055 231.651 329.008 230.766C328.264 220.049 327.472 209.286 326.727 198.57C326.634 197.684 325.238 197.684 325.331 198.57Z" fill="#030235"/>
<path d="M326.681 198.709C329.335 198.244 331.988 198.104 334.688 198.244C334.456 198.011 334.223 197.778 333.99 197.545C334.688 208.448 335.713 219.304 336.97 230.114C337.063 230.999 338.459 230.999 338.366 230.114C337.063 219.304 336.085 208.401 335.387 197.545C335.34 197.172 335.107 196.846 334.688 196.846C331.849 196.706 329.102 196.892 326.309 197.358C325.424 197.545 325.843 198.896 326.681 198.709Z" fill="#030235"/>
<path d="M341.346 209.613C342.416 216.089 343.068 222.659 343.301 229.229C343.347 230.114 344.744 230.114 344.698 229.229C344.465 222.519 343.813 215.856 342.696 209.24C342.556 208.355 341.206 208.727 341.346 209.613Z" fill="#030235"/>
<path d="M343.021 210.311C345.721 210.311 348.375 210.171 351.029 209.799C350.796 209.566 350.563 209.333 350.33 209.1C350.982 215.576 351.68 222.006 352.332 228.483C352.425 229.368 353.822 229.368 353.729 228.483C353.077 222.006 352.379 215.576 351.727 209.1C351.68 208.774 351.448 208.354 351.029 208.401C348.375 208.727 345.675 208.913 343.021 208.913C342.137 208.913 342.137 210.311 343.021 210.311Z" fill="#030235"/>
<path d="M357.919 198.477C359.036 208.541 359.735 218.605 360.014 228.763C360.061 229.648 361.457 229.648 361.411 228.763C361.085 218.652 360.386 208.541 359.316 198.477C359.223 197.591 357.826 197.591 357.919 198.477Z" fill="#030235"/>
<path d="M358.617 199.035C360.107 199.128 361.643 199.175 363.133 199.268C365.228 199.361 365.275 199.408 365.321 201.505C365.461 204.533 365.601 207.515 365.787 210.544C366.206 216.322 366.857 222.053 367.928 227.737C368.114 228.622 369.418 228.25 369.278 227.364C367.928 220.189 367.276 212.874 366.904 205.558C366.811 203.881 366.764 202.25 366.671 200.573C366.625 199.921 366.718 198.942 366.206 198.383C365.647 197.824 364.669 197.917 363.971 197.87C362.155 197.777 360.386 197.684 358.571 197.591C357.733 197.591 357.733 198.989 358.617 199.035Z" fill="#030235"/>
<path d="M376.727 242.834C394.697 241.576 412.621 239.293 430.311 235.985C431.196 235.799 430.824 234.494 429.939 234.634C412.341 237.942 394.558 240.179 376.727 241.437C375.796 241.483 375.796 242.881 376.727 242.834Z" fill="#030235"/>
<path d="M404.101 233.935C411.736 233.142 419.418 232.35 427.053 231.558C427.937 231.465 427.937 230.067 427.053 230.16C419.418 230.953 411.736 231.745 404.101 232.537C403.217 232.63 403.217 234.028 404.101 233.935Z" fill="#030235"/>
<path d="M417.137 224.616C420.628 224.476 424.166 224.336 427.658 224.196C428.542 224.15 428.542 222.752 427.658 222.798C424.166 222.938 420.628 223.078 417.137 223.218C416.205 223.264 416.205 224.662 417.137 224.616Z" fill="#030235"/>
<path d="M380.265 67.9209C381.15 70.4835 381.522 73.0928 381.382 75.7952C381.336 76.6805 382.733 76.6805 382.779 75.7952C382.919 72.953 382.546 70.2506 381.615 67.5481C381.289 66.7094 379.939 67.0822 380.265 67.9209Z" fill="#030235"/>
<path d="M381.429 68.0605C394.232 66.7559 407.034 65.9172 419.883 65.4978C420.768 65.4512 420.768 64.0534 419.883 64.1C407.034 64.5194 394.185 65.358 381.429 66.6627C380.545 66.7559 380.545 68.1537 381.429 68.0605Z" fill="#030235"/>
<path d="M382.779 76.5405C395.535 75.6086 408.245 74.6767 421 73.7448C421.885 73.6982 421.885 72.3004 421 72.347C408.245 73.2789 395.535 74.2108 382.779 75.1426C381.895 75.1892 381.895 76.587 382.779 76.5405Z" fill="#030235"/>
<path d="M420.069 65.7305C420.488 68.6193 420.907 71.4615 421.326 74.3503C421.466 75.2356 422.816 74.8629 422.676 73.9776C422.257 71.0888 421.838 68.2465 421.419 65.3577C421.28 64.4724 419.93 64.8452 420.069 65.7305Z" fill="#030235"/>
<path d="M459.119 320.69C458.885 323.134 458.699 325.624 458.465 328.069L220.806 328.476C220.106 326.032 219.406 323.542 218.706 321.097C298.812 320.961 378.966 320.826 459.119 320.69Z" fill="white"/>
<path d="M455.498 320.689H452.972C452.084 320.689 452.084 319.716 452.972 319.716C453.814 319.716 454.656 319.716 455.498 319.716C456.433 319.716 456.433 320.689 455.498 320.689Z" fill="#030235"/>
<path d="M458.761 322.636H365.02C365.02 322.636 302.525 322.636 271.278 322.636H218.125C216.304 322.636 216.304 319.716 218.125 319.716C249.373 319.716 280.62 319.716 311.867 319.716C343.114 319.716 374.361 319.716 405.608 319.716C423.311 319.716 441.059 319.716 458.761 319.716C460.536 319.716 460.536 322.636 458.761 322.636Z" fill="#030235"/>
<path d="M457.759 329.449H273.998H222.012C220.199 329.449 220.199 326.529 222.012 326.529C283.251 326.529 344.535 326.529 405.774 326.529C423.118 326.529 440.415 326.529 457.759 326.529C459.572 326.529 459.572 329.449 457.759 329.449Z" fill="#030235"/>
<path d="M450.359 336.614V453.382V486.744C450.359 488.556 447.439 488.556 447.439 486.744C447.439 447.806 447.439 408.868 447.439 369.976C447.439 358.871 447.439 347.719 447.439 336.614C447.439 334.848 450.359 334.848 450.359 336.614Z" fill="#030235"/>
<path d="M255.692 334.7V440.232V470.199C255.692 472.008 252.772 472.008 252.772 470.199C252.772 435.037 252.772 399.828 252.772 364.666C252.772 354.693 252.772 344.719 252.772 334.7C252.772 332.89 255.692 332.89 255.692 334.7Z" fill="#030235"/>
<path d="M707.604 468.333H587.876H467.624H400.172C398.131 468.333 398.131 466.386 400.172 466.386C440.099 466.386 479.974 466.386 519.901 466.386C559.984 466.386 600.068 466.386 640.152 466.386C662.654 466.386 685.103 466.386 707.604 466.386C709.645 466.386 709.645 468.333 707.604 468.333Z" fill="#030235"/>
<path d="M282.743 455.01H201.202H120.063H73.8824C72.3136 455.01 72.3136 453.063 73.8824 453.063C101.076 453.063 128.229 453.063 155.423 453.063C182.456 453.063 209.529 453.063 236.562 453.063C251.969 453.063 267.335 453.063 282.743 453.063C284.311 453.063 284.311 455.01 282.743 455.01Z" fill="#030235"/>
<path d="M449.386 335.679V450.225V482.846C449.386 484.664 446.466 484.664 446.466 482.846C446.466 444.68 446.466 406.467 446.466 368.3C446.466 357.442 446.466 346.584 446.466 335.679C446.466 333.862 449.386 333.862 449.386 335.679Z" fill="#030235"/>
<path d="M449.386 336.615V450.441V482.85C449.386 484.663 446.466 484.663 446.466 482.85C446.466 444.908 446.466 406.966 446.466 369.024C446.466 358.236 446.466 347.449 446.466 336.615C446.466 334.848 449.386 334.848 449.386 336.615Z" fill="#030235"/>
<path d="M255.692 333.699V437.599V467.271C255.692 469.091 252.772 469.091 252.772 467.271C252.772 432.653 252.772 397.989 252.772 363.371C252.772 353.48 252.772 343.59 252.772 333.699C252.772 331.926 255.692 331.926 255.692 333.699Z" fill="#030235"/>
<path d="M255.692 334.7V437.127V466.306C255.692 468.115 252.772 468.115 252.772 466.306C252.772 432.163 252.772 398.021 252.772 363.878C252.772 354.137 252.772 344.395 252.772 334.7C252.772 332.89 255.692 332.89 255.692 334.7Z" fill="#030235"/>
<path d="M455.869 329.803C453.626 332.573 451.643 335.475 449.875 338.553C449.013 340.004 446.771 338.685 447.633 337.234C449.53 333.98 451.686 330.902 454.058 327.956C455.136 326.637 456.946 328.484 455.869 329.803Z" fill="#030235"/>
<path d="M446.873 337.842C443.309 334.879 439.794 331.867 436.23 328.903C434.833 327.708 436.856 325.7 438.253 326.896C441.816 329.859 445.332 332.871 448.895 335.835C450.34 337.03 448.269 339.037 446.873 337.842Z" fill="#030235"/>
<path d="M263.769 330.942C260.809 332.644 257.849 334.347 254.888 336.049C253.313 336.965 251.88 334.696 253.456 333.779C256.416 332.077 259.377 330.375 262.337 328.672C263.912 327.799 265.345 330.069 263.769 330.942Z" fill="#030235"/>
<path d="M247.411 327.829C249.821 329.742 252.138 331.793 254.316 333.934C255.567 335.164 253.621 337.123 252.369 335.847C250.191 333.706 247.874 331.656 245.464 329.742C244.074 328.649 246.02 326.736 247.411 327.829Z" fill="#030235"/>
<path d="M261.477 331.396C257.701 331.978 254.019 332.124 250.242 331.736C250.478 330.814 250.714 329.941 250.95 329.019C252.508 330.038 254.113 330.329 255.954 330.523C256.993 330.669 258.031 332.124 256.945 332.997C255.482 334.21 254.019 334.598 252.178 334.113C250.431 333.676 251.139 330.863 252.933 331.299C253.641 331.59 254.349 331.445 254.963 330.911C255.293 331.736 255.624 332.56 255.954 333.385C253.688 333.143 251.47 332.803 249.534 331.445C248.449 330.717 248.732 328.583 250.242 328.728C253.736 329.068 257.276 329.019 260.769 328.486C262.516 328.292 263.271 331.105 261.477 331.396Z" fill="#030235"/>
<path d="M248.009 328.582C249.419 328.341 250.828 328.502 252.037 329.145C252.691 329.506 252.993 330.189 252.591 330.791C252.188 331.313 251.181 331.595 250.526 331.233C249.973 330.912 249.419 330.791 248.865 330.912C248.059 331.032 247.254 330.711 247.002 330.068C246.75 329.466 247.203 328.703 248.009 328.582Z" fill="#030235"/>
<path d="M452.651 330.62C451.82 331.186 448.729 332.648 448.868 333.874L447.483 332.459C447.668 332.459 448.222 330.29 448.36 329.913C448.775 330.62 449.144 331.327 449.56 332.035C446.791 331.893 444.162 331.327 441.624 330.29C442.086 329.488 442.501 328.734 442.962 327.932C444.531 329.583 446.192 331.139 447.991 332.553L446.099 334.487C444.438 331.61 446.791 329.253 449.19 328.027C449.421 328.923 449.652 329.771 449.883 330.667C447.991 330.573 446.099 330.526 444.208 330.62C442.409 330.714 442.455 327.885 444.208 327.791C446.099 327.697 447.991 327.697 449.883 327.838C451.174 327.932 451.866 329.819 450.575 330.479C449.744 330.903 447.714 331.799 448.452 333.072C449.098 334.204 447.714 335.901 446.561 335.005C444.577 333.449 442.685 331.799 440.978 329.96C440.102 329.017 440.978 327.037 442.316 327.602C444.669 328.545 447.022 329.111 449.513 329.253C450.621 329.3 451.128 330.384 450.713 331.375C449.929 333.166 449.975 335.335 447.437 335.288C446.607 335.288 446.146 334.628 446.053 333.874C445.684 331.045 449.329 329.441 451.174 328.215C452.743 327.178 454.127 329.63 452.651 330.62Z" fill="#030235"/>
<path d="M437.706 319.058C437.706 316.905 437.706 314.752 437.706 312.556C437.706 311.721 438.679 311.721 438.679 312.556V319.058C438.679 319.936 437.706 319.936 437.706 319.058Z" fill="#D0D3D8"/>
<path d="M438.017 312.903H399.435C398.552 312.903 398.552 311.93 399.435 311.93C412.311 311.93 425.141 311.93 438.017 311.93C438.9 311.93 438.9 312.903 438.017 312.903Z" fill="#D0D3D8"/>
<path d="M400.719 312.616V319.065C400.719 319.934 398.772 319.934 398.772 319.065C398.772 316.915 398.772 314.766 398.772 312.616C398.772 311.701 400.719 311.701 400.719 312.616Z" fill="#D0D3D8"/>
<path d="M437.037 315.823H407.228C406.336 315.823 406.336 313.876 407.228 313.876C417.18 313.876 427.085 313.876 437.037 313.876C437.929 313.876 437.929 315.823 437.037 315.823Z" fill="#D0D3D8"/>
<path d="M430.22 318.743H407.232C406.335 318.743 406.335 316.797 407.232 316.797C414.879 316.797 422.573 316.797 430.22 316.797C431.117 316.797 431.117 318.743 430.22 318.743Z" fill="#D0D3D8"/>
<path d="M428.946 312.261C428.946 310.727 428.946 309.239 428.946 307.706C428.946 306.849 429.919 306.849 429.919 307.706V312.261C429.919 313.117 428.946 313.117 428.946 312.261Z" fill="#D0D3D8"/>
<path d="M428.281 308.036H394.57C393.684 308.036 393.684 306.09 394.57 306.09C405.807 306.09 417.044 306.09 428.281 306.09C429.167 306.09 429.167 308.036 428.281 308.036Z" fill="#D0D3D8"/>
<path d="M399.067 312.903H394.585C393.68 312.903 393.68 310.956 394.585 310.956C396.063 310.956 397.589 310.956 399.067 310.956C399.973 310.956 399.973 312.903 399.067 312.903Z" fill="#D0D3D8"/>
<path d="M394.879 307.757V312.244C394.879 313.123 393.906 313.123 393.906 312.244C393.906 310.764 393.906 309.237 393.906 307.757C393.906 306.832 394.879 306.832 394.879 307.757Z" fill="#D0D3D8"/>
<path d="M421.411 309.983H413.085C412.171 309.983 412.171 309.009 413.085 309.009C415.876 309.009 418.619 309.009 421.411 309.009C422.373 309.009 422.373 309.983 421.411 309.983Z" fill="#D0D3D8"/>
<path d="M407.822 310.956H400.43C399.518 310.956 399.518 309.983 400.43 309.983C402.878 309.983 405.374 309.983 407.822 309.983C408.734 309.983 408.734 310.956 407.822 310.956Z" fill="#D0D3D8"/>
<path d="M420.691 305.911C421.679 304.873 421.885 303.292 421.803 301.848C421.638 299.454 419.661 299.364 418.013 300.087C417.272 300.403 416.942 299.093 417.684 298.777C419.537 297.964 421.968 298.01 422.791 300.403C423.492 302.435 422.997 305.369 421.556 306.86C420.979 307.492 420.114 306.498 420.691 305.911Z" fill="#D0D3D8"/>
<path d="M418.167 299.09C413.879 297.043 412.1 304.744 415.795 306.693C416.57 307.132 415.886 308.351 415.11 307.961C409.819 305.134 412.921 294.996 418.851 297.823C419.672 298.213 418.942 299.48 418.167 299.09Z" fill="#D0D3D8"/>
<path d="M417.279 298.462C417.579 297.08 418.299 295.827 419.439 294.705C420.099 294.014 421.66 294.662 421 295.352C419.979 296.389 419.319 297.512 419.019 298.807C418.839 299.627 417.099 299.282 417.279 298.462Z" fill="#D0D3D8"/>
<path d="M418.666 296.194C418.511 295.868 418.304 295.582 418.046 295.297C417.942 295.175 417.787 295.012 417.632 294.889C417.58 294.808 417.477 294.767 417.374 294.685C417.632 294.278 417.787 294.196 417.891 294.4C418.149 294.604 418.408 295.134 418.563 295.419C418.822 295.786 419.132 296.112 419.442 296.439C420.011 297.091 418.666 297.703 418.098 297.05C417.529 296.439 417.012 295.786 416.598 295.093C416.236 294.522 416.029 293.788 416.96 293.503C418.511 293.054 419.701 294.971 420.114 295.827C420.528 296.602 419.028 296.928 418.666 296.194Z" fill="#D0D3D8"/>
<path d="M189.506 389.983C189.319 392.177 189.132 394.417 188.945 396.61C167.394 396.423 145.844 396.237 124.293 396.05C124.527 393.95 124.76 391.85 124.994 389.797C146.545 389.89 168.002 389.937 189.506 389.983Z" fill="white"/>
<path d="M189.133 397.582H124.683C122.865 397.582 122.865 394.662 124.683 394.662C146.182 394.662 167.634 394.662 189.133 394.662C190.905 394.662 190.951 397.582 189.133 397.582Z" fill="#030235"/>
<path d="M189.111 390.77H125.661C123.836 390.77 123.836 388.823 125.661 388.823C146.811 388.823 167.961 388.823 189.111 388.823C190.935 388.823 190.935 390.77 189.111 390.77Z" fill="#030235"/>
<path d="M191.453 390.242V395.191C191.453 397.083 188.533 397.083 188.533 395.191C188.533 393.541 188.533 391.892 188.533 390.242C188.533 388.35 191.453 388.35 191.453 390.242Z" fill="#030235"/>
<path d="M126.239 390.14V396.266C126.239 398.022 123.319 398.022 123.319 396.266C123.319 394.239 123.319 392.167 123.319 390.14C123.319 388.384 126.239 388.384 126.239 390.14Z" fill="#030235"/>
<path d="M157.386 396.994V477.011C157.386 478.822 154.466 478.822 154.466 477.011C154.466 450.354 154.466 423.697 154.466 396.994C154.466 395.183 157.386 395.183 157.386 396.994Z" fill="#030235"/>
<path d="M157.564 476.638C162.453 479.558 167.343 482.478 172.28 485.398C173.846 486.356 172.422 488.845 170.856 487.888C165.966 484.968 161.077 482.047 156.14 479.127C154.526 478.17 155.997 475.681 157.564 476.638Z" fill="#030235"/>
<path d="M156.711 478.981C151.433 481.944 146.199 484.952 140.921 487.916C139.387 488.782 138.034 486.411 139.567 485.545C144.846 482.582 150.079 479.573 155.358 476.61C156.892 475.744 158.245 478.115 156.711 478.981Z" fill="#030235"/>
<path d="M171.581 489.076C161.123 488.979 150.711 488.638 140.253 488.103C138.463 488.006 138.416 485.088 140.253 485.185C150.664 485.72 161.123 486.061 171.581 486.158C173.419 486.158 173.419 489.076 171.581 489.076Z" fill="#030235"/>
<path d="M169.787 397.675C165.507 403.651 161.608 409.908 158.089 416.351C157.233 417.938 154.761 416.538 155.617 414.95C159.135 408.507 163.034 402.251 167.314 396.274C168.36 394.78 170.833 396.181 169.787 397.675Z" fill="#030235"/>
<path d="M142.203 396.039C148.079 401.913 153.102 408.587 157.184 415.919C158.081 417.47 155.749 418.927 154.852 417.329C150.86 410.185 145.971 403.746 140.274 398.06C139.018 396.791 140.947 394.77 142.203 396.039Z" fill="#030235"/>
<path d="M256.291 471.615L255.742 471.377L255.708 470.779C255.525 467.506 255.353 464.232 255.181 460.961L255.181 460.959C255.023 457.954 254.865 454.951 254.699 451.948C250.48 451.392 246.263 450.836 242.077 450.279C242.21 460.848 242.382 471.418 242.554 481.989C255.196 484.194 264.782 485.525 271.321 485.981C274.666 486.214 277.164 486.214 278.849 486.002C279.696 485.895 280.276 485.741 280.64 485.573C280.919 485.445 280.989 485.349 281.002 485.328C281.001 485.306 280.992 485.228 280.909 485.074C280.78 484.834 280.522 484.504 280.076 484.086C279.187 483.251 277.723 482.219 275.637 480.989C271.478 478.537 265.036 475.41 256.291 471.615ZM281.004 485.323C281.004 485.323 281.003 485.324 281.003 485.326C281.004 485.324 281.004 485.323 281.004 485.323ZM281.001 485.334C281.001 485.334 281.002 485.332 281.002 485.33C281.001 485.332 281.001 485.334 281.001 485.334C281.001 485.334 281.001 485.335 281.001 485.335C281.001 485.335 281.001 485.335 281.001 485.334Z" fill="white" stroke="#030235" stroke-width="1.94136"/>
<path d="M200.211 342.987C204.189 346.513 209.851 351.618 216.449 357.928C232.173 373.056 243.731 384.146 251.546 395.608C258.004 405.12 267.597 423.218 268.346 452.823C261.888 454.586 253.746 456.071 244.293 455.978C241.111 455.932 238.069 455.746 235.308 455.421C236.525 448.693 237.507 438.159 235.027 425.816C233.296 417.139 230.394 410.178 227.774 405.12C206.716 395.84 192.49 384.471 183.411 375.794C174.239 367.023 163.804 357 166.611 349.901C169.185 343.172 182.896 340.574 200.211 342.987Z" fill="#030235"/>
<path opacity="0.18" d="M177.968 343.076C185.01 352.452 193.452 362.622 203.573 372.978C216.259 385.993 228.806 396.489 240.046 404.839C243.964 422.053 247.881 439.267 251.799 456.433C250.12 456.713 248.208 456.947 246.109 456.947C241.865 457.04 238.227 456.433 235.428 455.687C236.315 449.809 236.921 441.739 235.802 432.362C234.402 420.793 230.858 411.697 227.966 405.679C217.425 400.828 209.077 395.883 203.06 391.964C203.06 391.964 184.218 379.742 169.619 360.989C169.293 360.569 168.173 359.123 167.287 356.884C166.588 355.065 165.701 352.826 166.401 350.493C167.054 348.394 168.64 347.228 170.319 346.062C171.625 345.175 174.19 343.636 177.968 343.076Z" fill="#6B6E85"/>
<path opacity="0.16" d="M228.439 405.369C230.497 409.08 232.508 412.977 234.47 417.06C241.076 430.838 245.672 444.013 248.879 455.982C244.475 455.797 240.119 455.611 235.715 455.472C236.72 449.859 237.486 442.297 236.624 433.529C235.428 421.142 231.55 411.493 228.439 405.369Z" fill="#6B6E85"/>
<path d="M220.115 477.876L219.458 477.48L219.692 476.75L225.807 457.629C221.762 456.166 217.689 454.71 213.616 453.321L203.389 483.26C216.012 487.702 225.613 490.756 232.211 492.43C235.596 493.29 238.147 493.774 239.895 493.908C240.775 493.975 241.389 493.948 241.782 493.865C241.911 493.837 241.996 493.809 242.049 493.786C242.041 493.761 242.03 493.729 242.014 493.691C241.919 493.465 241.711 493.136 241.33 492.693C240.573 491.814 239.293 490.668 237.445 489.249C233.762 486.42 227.991 482.63 220.115 477.876ZM242.129 493.743C242.129 493.743 242.128 493.743 242.127 493.745C242.128 493.744 242.129 493.743 242.129 493.743ZM242.068 493.871C242.068 493.875 242.068 493.876 242.068 493.876C242.068 493.877 242.068 493.875 242.068 493.871Z" fill="white" stroke="#030235" stroke-width="1.94136"/>
<path d="M149.728 352.27C146.412 369.095 151.409 378.557 153.79 382.193C158.553 389.464 164.904 391.701 183.441 400.883C190.679 404.472 201.699 410.065 215.194 417.476C214.26 423.395 212.766 430.2 210.384 437.611C208.143 444.602 205.528 450.708 203.006 455.835C205.481 458.212 210.477 462.407 218.089 464.83C226.307 467.487 233.358 466.695 236.813 466.089C244.144 451.64 246.012 438.962 246.526 431.225C247.133 421.903 247.833 411.323 242.37 400.883C238.167 392.866 234.105 392.12 217.108 379.163C191.566 359.727 188.998 352.456 175.83 349.753C165.044 347.562 155.471 350.126 149.728 352.27Z" fill="#030235"/>
<path opacity="0.11" d="M148.686 361.569C149.439 364.021 150.804 367.584 153.203 371.425C160.591 383.086 171.884 387.713 179.789 391.6C189.153 396.227 201.763 403.862 215.786 417.049C211.833 414.874 206.987 412.283 201.34 409.322C191.365 404.093 186.424 401.502 181.295 399.096C177.295 397.245 172.731 395.255 165.908 391.692C161.015 389.147 158.332 387.574 155.791 384.659C152.921 381.373 151.651 378.088 150.804 375.867C149.769 373.091 148.31 368.14 148.686 361.569Z" fill="#6B6E85"/>
<path opacity="0.17" d="M215.786 417.049C215.738 421 215.45 425.232 214.923 429.699C213.581 441.127 210.753 450.955 207.734 458.903C206.871 458.432 205.864 457.774 204.81 456.881C204.139 456.316 203.564 455.752 203.132 455.235C205.145 451.143 207.11 446.582 208.98 441.644C212.287 432.709 214.396 424.386 215.786 417.049Z" fill="#6B6E85"/>
<path d="M181.049 260.883C186.834 262.837 187.852 269.768 191.74 277.676C191.74 277.676 197.848 290.236 211.223 300.564C216.082 304.332 226.587 310.984 244.127 312.147C245.839 311.449 248.477 310.519 251.809 309.96C256.575 309.17 263.239 308.007 267.728 311.868C269.765 313.635 272.032 316.985 271.014 319.032C269.765 321.544 264.211 320.567 255.095 320.148C242.461 319.59 243.062 320.985 234.269 320.427C226.402 319.915 214 319.171 201.088 311.589C188.732 304.378 182.345 294.749 180.818 292.283C177.856 287.631 176.514 283.863 173.784 276.281C170.174 266.326 170.776 264.093 171.794 262.79C173.552 260.371 177.81 259.766 181.049 260.883Z" fill="white" stroke="#030235" stroke-width="1.64647" stroke-miterlimit="10"/>
<path d="M249.53 313.882C252.464 314.427 256.703 314.563 258.845 316.923C260.056 318.284 259.87 320.689 257.634 320.689C256.982 320.689 256.935 319.646 257.634 319.646C258.752 318.511 258.659 317.603 257.262 316.968C256.796 316.65 256.283 316.423 255.725 316.197C255.119 315.97 254.514 315.833 253.908 315.697C252.371 315.38 250.834 315.107 249.25 314.835C248.598 314.744 248.878 313.791 249.53 313.882Z" fill="#030235"/>
<path d="M272.109 317.559C269.221 320.424 264.718 317.095 261.243 317.83C260.558 317.985 260.264 317.133 260.949 316.978C262.467 316.669 263.788 316.824 265.305 317.211C267.312 317.714 269.759 318.566 271.374 316.94C271.766 316.514 272.549 317.133 272.109 317.559Z" fill="#030235"/>
<path d="M270.291 313.492C270.198 315.157 269.272 315.822 267.927 315.822C264.915 315.822 262.273 314.38 259.26 315.545C258.611 315.767 258.333 314.602 258.982 314.324C260.512 313.714 261.995 313.659 263.571 313.825C264.683 313.936 269.132 315.434 269.225 313.437C269.318 312.715 270.338 312.715 270.291 313.492Z" fill="#030235"/>
<path d="M265.379 310.602C264.923 311.723 264.147 312.236 262.96 312.423C260.633 312.75 258.625 312.844 256.481 313.824C255.887 314.105 255.34 313.17 255.979 312.937C257.165 312.423 258.352 311.956 259.629 311.723C261.089 311.442 263.782 311.91 264.421 310.322C264.649 309.714 265.653 309.995 265.379 310.602Z" fill="#030235"/>
<path opacity="0.16" d="M175.389 260.393C178.037 261.048 177.247 268.216 178.641 274.868C180.965 285.596 188.538 292.295 196.902 299.697C202.57 304.709 209.215 310.612 219.344 313.235C222.829 314.125 228.59 315.109 234.77 315.437C243.133 315.859 247.269 316.093 247.547 316.046C248.941 315.906 252.333 315.531 255.957 317.124C256.701 317.452 258.745 318.342 258.606 318.997C258.42 319.981 253.588 319.7 242.715 319.606C234.677 319.56 235.513 319.7 233.051 319.606C228.404 319.419 220.319 319.138 211.213 315.812C198.249 311.127 190.257 302.835 186.587 298.994C183.055 295.246 181.104 292.342 180.5 291.452C177.619 287.095 176.272 283.207 173.623 275.571C170.557 266.67 170.557 264.328 171.765 262.501C172.601 261.423 174.134 260.065 175.389 260.393Z" fill="#6B6E85"/>
<path opacity="0.13" d="M270.293 318.833C269.97 318.016 268.587 314.654 264.9 312.882C259.369 310.293 253.976 313.791 253.746 313.927C254.944 314.563 255.958 315.017 256.696 315.29C257.848 315.789 258.309 315.88 258.724 316.335C259.415 317.198 259.231 318.47 259.046 319.242C260.521 319.56 262.457 319.787 264.762 319.696C266.974 319.651 268.864 319.242 270.293 318.833Z" fill="#6B6E85"/>
<path opacity="0.14" d="M171.986 268.13C173.914 274.685 178.139 285.735 187.415 296.41C200.043 310.971 214.875 316.636 221.626 318.743C216.437 317.807 197.15 313.64 183.558 295.661C175.522 284.986 172.95 274.123 171.986 268.13Z" fill="#6B6E85"/>
<path d="M182.375 261.097C185.338 264.31 187.455 268.548 188.819 284.194C190.842 307.059 187.643 312.322 191.218 323.638C192.864 328.807 196.251 336.304 204.106 344.361C198.556 347.9 189.572 352.743 177.53 355.537C165.63 358.284 155.517 357.865 148.932 357.12C140.465 331.368 141.171 310.552 142.911 297.746C144.557 285.545 148.273 257.464 163.043 253.925C170.051 252.202 178 256.393 182.375 261.097Z" fill="#2466C5" stroke="#030235" stroke-width="1.64647" stroke-miterlimit="10"/>
<path opacity="0.12" d="M166.479 253.53C166.711 255.45 167.037 258.306 167.363 261.725C169.552 284.622 166.991 288.79 168.668 302.276C169.599 309.955 171.555 324.331 181.616 337.723C185.807 343.295 190.232 347.182 193.399 349.57C188.322 352.145 180.591 355.376 170.717 356.875C161.868 358.186 154.369 357.671 149.059 356.875C147.569 352.567 145.799 346.714 144.402 339.69C141.793 326.672 141.607 315.574 141.933 307.895C142.539 293.051 143.889 261.209 160.098 254.701C162.613 253.717 164.895 253.53 166.479 253.53Z" fill="#6B6E85"/>
<path opacity="0.24" d="M143.009 320.691C143.568 320.597 144.873 326.439 146.782 331.716C149.205 338.548 153.77 347.735 163.226 357.676C158.661 357.441 154.049 357.252 149.484 357.017C147.947 352.023 145.991 344.578 144.407 335.391C143.382 329.219 142.311 320.832 143.009 320.691Z" fill="#6B6E85"/>
<path d="M155.027 260.445C149.81 261.469 147.594 269.799 145.748 277.106C143.901 284.459 140.346 299.444 145.332 319.177C147.41 327.321 149.256 334.907 155.674 342.586C164.03 352.638 174.695 356.548 179.681 357.99C185.221 361.853 188.083 363.808 189.699 364.831C190.853 365.576 191.546 365.995 192.792 366.879C194.593 368.182 194.916 368.601 195.793 368.973C196.716 369.346 198.194 369.625 200.41 368.927C200.595 368.973 202.026 369.16 203.088 368.089C203.734 367.438 203.872 366.693 203.872 366.367C204.011 366.367 204.888 366.274 205.488 365.529C206.042 364.831 206.088 363.854 205.673 363.016C205.858 362.644 206.042 362.132 206.042 361.481C206.273 358.223 202.441 355.617 200.318 354.128C198.055 352.545 193.577 350.032 186.652 349.381C182.912 347.379 177.326 343.796 172.386 337.792C170.817 335.931 160.337 322.807 161.168 305.169C161.491 297.769 164.122 283.994 165.6 271.149C165.692 270.218 165.969 267.705 164.63 265.285C162.691 261.981 158.259 259.84 155.027 260.445Z" fill="white" stroke="#030235" stroke-width="1.64647" stroke-miterlimit="10"/>
<path d="M205.574 363.516C204.937 363.516 204.891 362.543 205.574 362.543C206.212 362.543 206.212 363.516 205.574 363.516Z" fill="#030235"/>
<path d="M206.051 362.627V362.968C206.004 363.553 205.391 363.699 205.062 363.261C203.178 360.676 200.635 358.774 197.668 357.799C197.008 357.604 197.291 356.531 197.95 356.726C201.2 357.799 203.931 359.847 206.004 362.675C205.674 362.773 205.344 362.87 205.015 362.968C205.015 362.87 205.015 362.773 205.015 362.627C205.015 361.944 206.098 361.944 206.051 362.627Z" fill="#030235"/>
<path d="M203.25 366.277C200.911 363.767 198.021 361.862 194.718 360.607C194.122 360.391 194.351 359.438 194.994 359.655C198.48 360.953 201.507 362.901 203.984 365.541C204.397 366.06 203.663 366.753 203.25 366.277Z" fill="#030235"/>
<path d="M200.316 369.188C197.827 366.526 194.956 364.315 191.701 362.51C191.127 362.194 191.653 361.292 192.227 361.653C195.53 363.503 198.497 365.759 201.034 368.512C201.513 368.963 200.747 369.685 200.316 369.188Z" fill="#030235"/>
<path opacity="0.13" d="M156.865 261.87C158.616 264.442 155.76 268.979 154.148 272.346C151.799 277.304 151.43 282.682 150.693 293.439C149.358 312.942 158.293 329.639 158.938 330.808C167.091 345.54 179.757 354.38 183.718 357.092C190.443 361.676 199.977 366.68 199.194 368.598C198.918 369.299 197.398 369.393 196.753 369.346C194.542 369.252 193.621 367.522 190.535 365.324C188.923 364.155 188.969 364.529 186.205 362.845C184.593 361.863 182.29 360.366 179.573 358.262C173.401 356.578 168.841 354.006 165.985 352.135C161.84 349.422 153.872 343.202 148.989 332.351C147.331 328.657 146.686 325.71 145.397 319.864C144.061 313.737 141.942 303.682 143.14 290.867C143.692 285.067 144.66 281.185 145.995 276.088C148.068 267.903 149.957 260.841 153.549 260.373C154.747 260.186 156.175 260.888 156.865 261.87Z" fill="#6B6E85"/>
<path opacity="0.16" d="M143.106 287.596C143.525 287.596 143.432 292.493 145.434 305.505C147.249 317.165 148.18 323.135 150.741 328.592C154.465 336.521 159.54 341.512 162.008 343.89C169.038 350.7 173.274 351.166 184.029 359.095C189.662 363.246 193.852 367.024 196.319 369.356C190.733 365.624 185.192 361.893 179.606 358.209C174.485 356.716 163.963 352.798 155.49 342.771C149.67 335.868 147.389 329.105 145.62 323.835C139.568 305.039 142.361 287.596 143.106 287.596Z" fill="#6B6E85"/>
<path d="M175.723 239.801C177.911 241.235 178.3 244.011 178.641 247.065C178.981 250.166 179.03 255.58 176.063 262.289C174.216 262.289 171.93 262.15 169.402 261.688C167.408 261.317 165.658 260.808 164.199 260.299C164.394 254.145 164.539 247.991 164.734 241.837C168.818 238.968 173.097 238.088 175.723 239.801Z" fill="white" stroke="#030235" stroke-width="1.64647" stroke-miterlimit="10"/>
<path d="M186.65 209.453C189.927 211.312 191.332 214.426 194.094 220.469C197.184 227.349 199.337 233.298 200.18 237.668C200.321 238.318 199.993 238.969 199.384 239.248C198.588 239.62 197.184 239.759 196.435 239.945C196.435 241.758 196.201 244.873 194.562 248.219C191.566 254.309 186.041 256.772 184.403 257.423C179.206 256.54 175.367 254.773 173.073 253.425C170.966 252.263 168.251 250.683 165.582 247.615C163.194 244.826 161.93 242.037 161.275 240.178C160.292 240.178 158.794 240.085 157.249 239.248C154.065 237.528 151.35 233.019 153.035 230.277C154.299 228.278 157.764 227.441 161.322 228.743C161.275 227.256 161.322 225.21 161.837 222.793C161.977 222.189 162.96 217.773 165.208 214.659C169.515 208.662 180.002 205.687 186.65 209.453Z" fill="white" stroke="#030235" stroke-width="1.64647" stroke-miterlimit="10"/>
<path d="M198.757 229.965C199.925 228.159 202.497 223.619 202.123 217.597C201.982 215.559 201.702 211.668 198.85 208.008C195.391 203.561 190.576 202.403 189.174 202.125C188.519 201.06 187.397 199.485 185.527 198.188C184.779 197.678 182.722 196.428 177.674 196.15C175.009 196.011 170.942 196.103 166.08 197.493C162.294 198.605 159.769 200.18 158.227 201.431C152.29 206.063 152.757 209.722 145.231 217.227C143.501 218.941 142.286 219.543 139.668 222.09C136.91 224.731 134.713 227.279 133.497 228.807C130.739 232.282 125.55 238.859 124.568 247.753C124.241 250.764 123.306 259.241 128.635 265.727C135.881 274.574 152.243 275.269 162.2 268.228C164.07 266.931 171.83 261.372 171.409 252.432C171.036 244.372 164.257 239.554 163.322 238.859C162.527 239.184 160.891 239.693 159.302 239.137C155.983 237.933 154.58 232.884 156.31 230.336C157.011 229.317 158.133 228.9 158.46 228.807C161.172 227.881 163.696 229.873 163.883 230.012C167.529 227.371 170.288 224.824 172.204 222.832C174.822 220.191 176.131 218.431 176.598 217.782C178.048 215.744 179.123 213.891 179.824 212.502C181.974 213.011 184.779 213.984 187.724 215.883C188.426 216.3 190.763 217.875 193.194 220.608C193.474 220.932 194.83 222.461 196.279 224.777C197.354 226.769 198.196 228.529 198.757 229.965Z" fill="#030235"/>
<path d="M188.771 234.471C188.771 234.438 188.771 234.438 188.771 234.471C188.771 234.504 188.737 234.57 188.737 234.636V234.669C188.771 234.735 188.805 234.768 188.839 234.834C188.771 234.768 188.84 234.801 188.976 234.9C189.044 234.867 189.112 234.867 189.18 234.834C189.215 234.801 189.249 234.801 189.249 234.768C189.283 234.702 189.283 234.636 189.317 234.57V234.537C189.283 234.471 189.249 234.438 189.215 234.372C189.146 234.372 189.078 234.339 189.01 234.339L188.737 234.603V234.702C188.908 234.735 189.078 234.801 189.249 234.834L189.283 234.801C189.317 234.735 189.351 234.702 189.385 234.636C189.351 234.537 189.283 234.438 189.249 234.372C189.18 234.339 189.112 234.339 189.044 234.306H189.078C189.283 234.339 189.453 234.471 189.453 234.669C189.453 234.867 189.283 235.065 189.078 235.032C188.874 234.999 188.669 234.9 188.635 234.669C188.567 234.471 188.669 234.24 188.874 234.141C189.078 234.042 189.283 234.108 189.385 234.273C189.59 234.537 189.453 234.966 189.112 234.999C188.805 235.032 188.533 234.801 188.533 234.504C188.533 234.207 188.84 234.009 189.146 234.075C189.453 234.174 189.59 234.471 189.453 234.768C189.351 234.966 189.078 234.999 188.942 234.9C188.703 234.867 188.703 234.636 188.771 234.471Z" fill="#030235"/>
<path d="M184.977 233.005C184.915 233.641 185.04 233.577 185.323 232.814C185.26 232.751 185.228 232.687 185.166 232.624C185.04 232.624 184.946 232.751 184.883 233.069C184.852 232.687 185.072 232.369 185.228 232.369C185.448 232.369 185.574 232.687 185.574 233.069C185.605 233.641 185.323 234.086 185.072 234.022C184.758 234.022 184.569 233.387 184.663 232.814C184.758 232.242 185.072 231.924 185.354 232.242C185.637 232.56 185.668 233.132 185.542 233.704C185.48 234.086 185.197 234.15 185.072 233.959C184.915 233.768 184.883 233.387 184.977 233.005Z" fill="#030235"/>
<path d="M186.099 236.304C185.916 236.304 185.886 236.365 186.008 236.517C186.008 236.639 186.038 236.7 186.129 236.7C186.16 236.578 186.16 236.426 186.19 236.304C186.099 236.274 186.038 236.274 185.947 236.335C186.251 236 186.738 236.487 186.434 236.821C186.221 237.065 185.825 237.004 185.673 236.73C185.521 236.456 185.673 236.122 185.947 236.031C186.251 235.939 186.556 236.152 186.586 236.456C186.586 236.791 186.251 237.034 185.947 236.973C185.49 236.852 185.673 236.183 186.099 236.304Z" fill="#030235"/>
<path d="M194.703 246.709C191.807 246.157 189.284 244.35 187.649 241.689C187.276 241.086 188.163 240.534 188.537 241.136C190.032 243.546 192.274 245.103 194.937 245.655C195.638 245.755 195.357 246.81 194.703 246.709Z" fill="#030235"/>
<path opacity="0.1" d="M178.76 213.623C177.919 215.311 176.844 217.561 175.629 220.232C171.891 228.388 171.471 230.638 171.33 232.607C171.143 235.56 171.657 237.81 172.078 239.404C174.227 248.122 180.535 253.935 183.666 256.466C182.124 256.279 180.255 255.95 178.199 255.247C175.022 254.169 172.545 252.716 170.863 251.497C171.003 252.95 171.003 255.2 170.162 257.732C169.228 260.732 167.546 262.607 166.144 264.388C165.069 265.747 163.153 267.903 160.116 269.638C157.173 271.372 154.416 271.981 152.734 272.263C148.809 273.153 145.538 273.059 143.342 272.872C140.305 272.591 135.492 272.169 131.007 268.7C129.885 267.81 127.315 265.794 125.773 262.232C125.4 261.388 124.839 259.794 124.559 255.575C124.231 250.607 123.998 247.138 125.166 242.732C126.381 238.185 128.577 234.67 130.726 232.092C134.464 242.169 143.482 247.982 151.612 246.763C157.967 245.779 161.798 240.763 162.92 239.216C160.443 239.779 157.92 239.029 156.472 237.201C154.743 235.138 154.229 231.435 156.472 229.467C158.247 227.92 161.191 227.873 163.387 229.607C166.05 227.685 169.088 225.154 172.171 221.873C174.928 219.014 177.078 216.154 178.76 213.623Z" fill="#6B6E85"/>
<path d="M189.444 229.276C189.711 228.708 189.756 227.857 189.311 227.403C189.444 227.46 189.533 227.517 189.667 227.573H189.533C189.667 227.517 189.756 227.46 189.889 227.403C189.444 227.857 189.8 229.617 189.978 230.127C189.889 230.014 189.8 229.957 189.667 229.844C189.711 229.844 189.756 229.9 189.756 229.9C189.622 229.9 189.489 229.957 189.355 229.957C189.622 229.787 189.578 228.879 189.533 228.652C189.489 228.141 189.4 227.687 189.222 227.289C189.444 227.346 189.667 227.46 189.889 227.517C189.667 227.744 189.622 228.198 189.667 228.538C189.667 228.708 189.711 228.879 189.756 228.992C189.8 229.276 189.889 229.276 189.667 229.333C189.578 229.446 189.489 229.503 189.355 229.617C189.355 229.56 189.4 229.56 189.4 229.503C189.8 228.879 190.645 229.503 190.245 230.127C190.022 230.468 189.711 230.695 189.355 230.525C188.955 230.354 188.822 229.844 188.733 229.39C188.511 228.254 188.511 227.119 189.311 226.381C189.533 226.154 189.889 226.325 189.978 226.608C190.423 227.744 190.689 229.503 190.111 230.638C189.889 231.092 189.4 231.319 189.044 230.979C188.644 230.581 188.599 229.56 188.555 228.992C188.466 228.141 188.6 225.7 189.756 226.438C190.689 227.062 190.6 228.992 190.156 229.957C189.978 230.638 189.089 229.957 189.444 229.276Z" fill="#030235"/>
<path d="M191.783 224.521C189.343 224.06 187.272 225.546 185.384 227.133C184.832 227.594 184.325 226.57 184.878 226.16C186.995 224.368 189.297 222.985 192.059 223.446C192.703 223.497 192.427 224.624 191.783 224.521Z" fill="#030235"/>
<path d="M189.228 241.14C188.637 241.537 188.099 242.047 187.616 242.613C187.079 243.236 186.219 242.33 186.756 241.707C187.293 241.084 187.938 240.517 188.637 240.008C189.281 239.554 189.872 240.687 189.228 241.14Z" fill="#030235"/>
<path d="M553.391 421.093L553.386 421.055L553.378 421.018C552.448 416.591 554.447 412.24 558.015 410.404C560.938 408.918 564.539 409.276 567.299 411.349C567.861 418.092 568.423 424.824 568.985 431.555L568.986 431.575C569.536 438.165 570.086 444.755 570.637 451.355C557.86 453.848 548.182 455.384 541.577 455.962C538.193 456.258 535.668 456.297 533.963 456.103C533.106 456.005 532.518 455.854 532.149 455.686C531.969 455.604 531.868 455.529 531.816 455.479C531.792 455.456 531.78 455.439 531.775 455.431C531.77 455.423 531.769 455.42 531.769 455.42L531.768 455.416L531.768 455.414C531.768 455.413 531.767 455.411 531.767 455.407C531.767 455.4 531.767 455.386 531.77 455.363C531.777 455.315 531.799 455.233 531.857 455.113C531.979 454.866 532.222 454.53 532.641 454.104C533.478 453.256 534.863 452.203 536.846 450.946C540.8 448.441 546.945 445.239 555.318 441.343L555.962 441.043L555.871 440.338C555.458 437.139 555.045 433.928 554.631 430.716L554.629 430.697C554.216 427.492 553.803 424.287 553.391 421.093Z" fill="white" stroke="#030235" stroke-width="1.94136"/>
<path d="M556.908 259.853C556.259 269.22 555.193 284.413 553.386 303.242C551.162 326.87 550.235 350.685 547.084 374.22C543.84 398.641 540.272 415.372 548.474 421.197C551.44 423.295 555.008 423.295 557.557 422.968C560.244 422.269 562.932 421.524 565.62 420.824C568.261 422.129 571.829 423.388 574.702 421.896C583.135 417.562 575.165 395.332 575.768 363.454C576.185 342.436 580.216 321.464 585.591 293.921C589.669 272.902 592.774 261.997 586.982 256.637C579.938 250.066 564.322 256.357 556.908 259.853Z" fill="#030235" stroke="#030235" stroke-width="1.64647" stroke-miterlimit="10"/>
<path opacity="0.14" d="M570.501 255.454C572.243 263.689 574.214 276.159 574.077 291.327C573.847 315.802 568.208 331.249 564.128 349.628C560.414 366.285 556.838 390.573 558.443 421.887C560.873 421.422 563.349 420.91 565.778 420.445C566.329 420.863 568.575 422.399 571.693 422.12C572.151 422.073 575.177 421.747 577.148 419.468C579.578 416.676 579.074 412.535 578.799 410.534C577.744 401.833 577.515 393.039 576.644 384.292C575.727 375.079 575.865 367.914 575.91 363.587C575.956 360.33 576.186 354.234 577.332 344.324C579.349 327.062 581.183 324.13 585.171 299.051C588.197 280.161 586.868 283.604 588.014 279.323C589.068 275.508 590.856 269.971 589.894 262.945C589.435 259.641 588.61 257.78 587.28 256.431C584.53 253.686 580.449 253.732 578.019 253.779C574.764 253.825 572.105 254.756 570.501 255.454Z" fill="#6B6E85"/>
<path d="M590.168 451.518C590.168 451.518 590.168 451.518 590.168 451.518C590.168 451.518 590.168 451.519 590.168 451.519C590.168 451.519 590.168 451.519 590.168 451.519M590.168 451.518C590.167 451.518 590.167 451.517 590.167 451.517C590.167 451.516 590.167 451.516 590.167 451.516C590.167 451.516 590.167 451.516 590.167 451.517C590.167 451.517 590.167 451.518 590.168 451.518M590.168 451.518C590.168 451.518 590.168 451.519 590.168 451.519M590.168 451.518C590.168 451.518 590.168 451.518 590.168 451.518M590.168 451.518C590.168 451.52 590.168 451.521 590.168 451.521C590.168 451.521 590.168 451.521 590.168 451.521C590.168 451.521 590.168 451.521 590.168 451.521C590.168 451.521 590.168 451.52 590.168 451.519C590.168 451.519 590.168 451.519 590.168 451.519M590.168 451.518C590.168 451.519 590.168 451.519 590.168 451.519M612.305 417.197L612.3 417.158L612.292 417.12C611.343 412.708 613.379 408.357 617.044 406.515C620.053 405.022 623.757 405.383 626.59 407.462C627.684 420.809 628.822 434.113 630.005 447.459C616.918 449.953 607.004 451.49 600.237 452.068C596.772 452.364 594.183 452.404 592.433 452.209C591.553 452.111 590.947 451.96 590.564 451.789C590.244 451.646 590.177 451.537 590.168 451.519L590.168 451.518C590.165 451.501 590.163 451.416 590.258 451.228C590.382 450.981 590.63 450.645 591.06 450.219C591.918 449.369 593.338 448.316 595.369 447.058C599.419 444.552 605.711 441.349 614.284 437.453L614.939 437.155L614.845 436.442C614.422 433.243 613.999 430.031 613.575 426.82C613.152 423.609 612.729 420.397 612.305 417.197Z" fill="white" stroke="#030235" stroke-width="1.94136"/>
<path d="M609.983 258.4C612.681 280.503 615.565 303.303 618.635 326.987C620.729 343.273 621.24 347.135 622.869 353.463C625.66 364.445 629.428 373.798 632.684 390.781C634.22 398.692 635.01 405.113 631.335 409.952C628.591 413.582 623.241 416.467 622.031 415.35C621.52 414.838 621.845 413.535 622.31 412.372C621.194 413.442 614.123 420.096 608.494 417.77C605.191 416.42 603.842 412.558 603.191 410.464C596.585 390.223 595.515 369.935 595.515 369.935C595.096 362.118 594.073 354.115 592.072 338.062C590.584 326.289 587.793 309.259 581.792 288.552C580.908 287.994 572.255 282.224 571.697 271.569C571.65 270.777 571.325 262.728 576.395 257.283C583.094 250.071 597.422 249.559 609.983 258.4Z" fill="#030235" stroke="#030235" stroke-width="1.64647" stroke-miterlimit="10"/>
<path opacity="0.14" d="M591.143 251.82C592.361 255.457 594.236 261.332 596.299 268.607C602.298 289.684 612.657 326.196 613.313 370.122C613.407 377.444 613.688 414.702 617.063 414.888C617.86 414.935 619.172 412.883 620.953 413.349C622.172 413.676 622.219 414.795 623.297 415.215C625.64 416.101 629.531 412.09 631.406 409.153C632.062 408.127 633.562 405.795 633.89 402.484C634.077 400.992 633.937 399.92 633.421 396.749C632.671 391.852 632.296 389.428 632.015 388.215C630 378.749 626.39 369.656 623.437 356.833C622.172 351.423 621.328 346.574 620.297 340.978C619.969 339.206 619.078 334.03 618.094 327.595C615.891 312.86 615.188 302.741 613.735 289.824C612.938 282.783 611.719 272.85 609.845 260.773C609.376 259.747 608.532 258.162 607.032 256.716C606.517 256.25 604.923 254.804 600.611 253.452C598.502 252.706 595.267 251.913 591.143 251.82Z" fill="#6B6E85"/>
<path d="M559.99 178.862C555.427 178.259 551.235 184.195 543.086 196.021C537.497 204.09 533.585 211.186 531.024 216.102C525.482 215.824 519.941 215.545 514.399 215.221C509.23 214.942 504.06 214.664 498.891 214.339C496.842 213.644 493.768 212.624 489.996 211.742C483.896 210.258 471.275 207.8 470.484 209.98C470.251 210.676 471.089 212.113 476.491 215.499C476.119 216.426 474.768 220.322 476.491 224.821C476.77 225.516 478.307 229.273 481.94 231.22C486.597 233.678 493.023 232.333 497.727 227.742C501.359 229.922 521.058 241.377 539.593 233.539C545.647 230.989 549.885 227.093 553.657 223.661C560.503 217.4 569.491 209.192 569.723 197.783C569.91 189.528 565.532 179.604 559.99 178.862Z" fill="white" stroke="#030235" stroke-width="1.64647" stroke-miterlimit="10"/>
<path d="M469.63 210.803C471.527 212.503 473.376 214.334 475.516 215.773C477.608 217.169 479.991 217.954 482.423 218.695C483.104 218.913 483.396 217.954 482.715 217.735C480.137 216.951 477.656 216.079 475.516 214.509C473.667 213.157 472.062 211.587 470.408 210.105C469.922 209.669 469.144 210.366 469.63 210.803Z" fill="#030235"/>
<path d="M491.58 215.837C489.821 216.427 488.201 217.354 486.951 218.619C486.072 219.504 484.776 220.895 485.1 222.16C485.424 223.593 487.368 223.593 488.664 223.593C490.747 223.551 492.737 223.003 494.542 222.033C495.098 221.738 494.589 220.895 494.033 221.232C492.876 221.865 491.626 222.328 490.284 222.539C489.127 222.708 485.748 223.087 486.35 221.106C486.951 219.083 489.914 217.439 491.904 216.764C492.46 216.554 492.182 215.626 491.58 215.837Z" fill="#030235"/>
<path d="M475.85 216.186C474.926 219.382 474.927 222.482 478.093 224.009C480.424 225.153 483.811 224.581 484.998 221.862C485.262 221.242 484.427 220.717 484.163 221.338C483.195 223.579 480.424 223.961 478.489 223.007C475.806 221.719 476.07 219.096 476.818 216.472C476.994 215.805 476.07 215.518 475.85 216.186Z" fill="#030235"/>
<path d="M475.317 223.144C475.511 225.993 477.209 228.792 480.118 229.342C482.688 229.841 485.064 228.242 485.986 225.843C486.228 225.194 485.21 224.894 484.919 225.543C484.143 227.542 481.961 228.742 479.876 228.142C477.742 227.492 476.53 225.293 476.384 223.144C476.384 222.445 475.269 222.445 475.317 223.144Z" fill="#030235"/>
<path d="M485.737 226.545C489.202 225.882 488.047 232.464 485.515 232.228C484.894 232.18 484.894 233.222 485.515 233.317C487.647 233.506 488.802 230.712 488.935 228.818C489.068 226.734 487.381 225.219 485.471 225.598C484.849 225.645 485.116 226.639 485.737 226.545Z" fill="#030235"/>
<path d="M485.075 222.596C485.075 222.551 485.122 222.551 485.122 222.507C484.933 222.551 484.792 222.596 484.603 222.64C484.98 222.729 485.028 223.884 484.98 224.106C484.933 224.684 484.697 225.217 484.225 225.661C483.753 226.106 484.509 226.816 484.98 226.372C485.688 225.706 486.066 224.773 486.019 223.795C485.971 223.085 485.735 221.841 484.839 221.663C484.65 221.618 484.461 221.663 484.32 221.796C484.32 221.841 484.273 221.841 484.273 221.885C483.895 222.374 484.603 223.085 485.075 222.596Z" fill="#030235"/>
<path d="M482.605 218.787C483.63 218.833 484.271 219.912 484.015 220.991C483.844 221.648 484.784 221.929 484.955 221.273C485.382 219.537 484.314 217.802 482.648 217.755C481.964 217.708 481.964 218.787 482.605 218.787Z" fill="#030235"/>
<path opacity="0.12" d="M566.858 186.607C565.506 190.507 563.269 195.783 559.726 201.563C556.091 207.481 552.035 214.042 544.158 219.547C541.268 221.566 532.551 227.53 519.64 227.989C507.474 228.401 498.525 223.722 494.982 221.612C492.185 223.676 490.274 223.814 489.016 223.538C487.897 223.263 487.477 222.713 485.52 222.116C483.842 221.612 482.49 221.52 481.744 221.474C479.041 221.29 476.244 221.107 475.498 222.346C474.519 224.043 477.689 227.667 480.159 229.64C481.278 230.512 483.236 232.026 485.986 232.439C492.465 233.448 497.266 227.897 497.546 227.576C499.13 228.539 501.414 229.87 504.304 231.154C509.012 233.31 515.678 236.292 524.534 236.247C534.602 236.247 541.874 232.347 543.366 231.521C545.137 230.512 548.446 227.667 555.019 221.933C561.125 216.611 563.362 214.271 565.413 211.06C566.625 209.179 568.163 206.747 569.049 203.398C570.96 196.241 568.396 189.727 566.858 186.607Z" fill="#6B6E85"/>
<path opacity="0.15" d="M569.48 191.473C568.589 194.601 567.04 199.008 564.365 203.889C561.878 208.439 555.307 220.145 541.369 227.348C537.239 229.481 530.106 233.083 520.204 232.893C509.222 232.656 501.338 227.917 498.006 225.642C496.129 226.827 493.313 228.343 489.652 229.339C484.772 230.618 481.252 230.192 481.158 230.903C481.064 231.613 484.443 233.13 487.963 233.035C492.89 232.893 496.363 229.623 497.63 228.296C500.869 230.666 512.977 239.006 528.839 236.874C541.088 235.215 548.831 228.249 555.636 222.088C560.704 217.491 566.571 212.041 568.823 202.941C569.997 198.297 569.809 194.221 569.48 191.473Z" fill="#6B6E85"/>
<path d="M555.261 178.655C554.334 179.728 552.711 182.015 551.319 192.932C549.464 207.77 550.438 219.527 551.319 228.299C552.34 238.704 553.777 251.254 555.864 265.532C563.933 268.051 577.335 270.897 593.426 268.331C600.707 267.165 606.921 265.158 611.929 263.059C610.862 251.394 611.001 241.97 611.326 235.764C612.903 203.71 614.34 194.799 614.34 194.799C615.407 188.407 616.381 184.441 614.016 180.848C611.651 177.162 607.152 175.902 592.823 174.969C571.074 173.476 560.13 172.87 555.261 178.655Z" fill="#D9BC22"/>
<path opacity="0.14" d="M586.276 174.927C587.715 180.088 588.921 185.579 589.942 191.397C595.233 221.992 591.52 249.115 586.276 269.34C588.968 269.152 591.798 268.824 594.815 268.308C601.219 267.228 606.835 265.539 611.475 263.803C610.826 254.465 610.64 246.487 610.64 240.152C610.687 222.462 612.218 208.947 612.868 203.551C613.703 196.981 614.585 191.491 615.327 187.503C615.513 186.376 615.699 184.312 614.724 182.153C613.61 179.666 611.522 178.352 610.64 177.836C607.624 176.006 604.561 176.006 602.89 176.006C598.899 175.865 593.608 175.631 586.276 174.927Z" fill="#6B6E85"/>
<path opacity="0.16" d="M615.476 186.607C607.209 208.05 605.481 223.372 605.668 233.696C605.715 237.574 606.135 246.87 601.184 256.634C598.148 262.567 594.178 266.724 591.143 269.34C593.945 268.967 597.027 268.406 600.343 267.518C604.594 266.397 608.283 264.996 611.413 263.641C610.992 251.588 611.039 238.508 611.833 224.54C612.533 210.899 613.841 198.239 615.476 186.607Z" fill="#6B6E85"/>
<path d="M608.955 179.33C614.68 176.816 622.453 184.17 627.479 188.87C632.972 194.036 644.095 204.507 644.654 221.634C645.119 235.921 637.998 246.253 634.461 250.581C628.922 257.329 622.639 260.866 618.915 262.588C618.869 264.171 618.636 266.684 617.566 269.43C616.961 270.919 613.889 278.738 608.024 279.063C607.233 279.11 604.533 279.11 601.415 276.178C601.229 276.178 600.298 276.038 599.693 275.201C599.134 274.409 599.088 273.246 599.646 272.315C599.507 272.222 598.297 271.617 598.017 270.174C597.691 268.592 598.762 267.428 598.855 267.382C598.902 266.591 599.088 265.567 599.833 265.055C600.67 264.497 601.555 264.962 602.904 264.869C603.789 264.776 605.045 264.45 606.535 263.147C604.859 262.681 601.089 261.471 601.182 260.122C601.229 258.539 606.674 257.609 607.885 257.376C610.863 256.864 613.423 256.957 615.145 257.097C616.169 255.235 617.659 252.489 619.427 249.185C622.406 243.6 623.896 240.808 624.78 238.807C626.455 235.084 628.317 229.452 628.829 221.587C626.735 219.54 623.523 216.608 619.427 213.396C610.584 206.509 607.605 206.369 605.185 202.46C600.624 195.153 602.811 182.029 608.955 179.33Z" fill="white" stroke="#030235" stroke-width="1.64647" stroke-miterlimit="10"/>
<path d="M597.969 266.996C598.709 270.265 604.257 269.51 606.476 268.337C607.031 268.044 606.522 267.206 605.967 267.541C604.349 268.421 599.541 269.385 598.986 266.787C598.847 266.158 597.83 266.41 597.969 266.996Z" fill="#030235"/>
<path d="M599.129 272.285C601.767 273.926 605.636 273.163 608.406 272.056C608.978 271.827 608.494 271.102 607.923 271.331C605.46 272.285 601.987 272.972 599.656 271.56C599.129 271.216 598.645 271.979 599.129 272.285Z" fill="#030235"/>
<path d="M601.119 276.429C603.811 277.492 606.936 277.35 609.411 275.933C609.932 275.65 609.454 274.942 608.933 275.26C606.763 276.5 604.028 276.712 601.64 275.756C601.076 275.508 600.555 276.181 601.119 276.429Z" fill="#030235"/>
<path opacity="0.18" d="M606.504 180.931C605.564 184.088 616.572 187.106 626.216 197.32C629.556 200.849 636.378 208.045 637.977 218.724C640 231.956 632.99 242.541 630.403 246.349C625.416 253.824 619.348 258.234 615.678 260.509C615.678 261.809 615.49 266.545 611.82 270.538C611.068 271.374 608.104 274.577 603.776 275.041C601.283 275.32 599.024 274.624 598.93 274.902C598.883 275.181 600.624 275.552 602.882 277.084C604.34 278.059 604.387 278.477 605.093 278.802C608.01 280.149 612.62 276.063 613.138 275.645C617.936 271.327 618.501 264.92 618.595 262.552C619.677 261.949 621.135 261.113 622.829 259.999C624.569 258.838 629.697 255.495 633.743 251.084C634.825 249.924 640.329 243.749 643.011 233.859C643.952 230.377 646.539 220.302 642.399 209.299C640.565 204.517 638.212 201.406 633.978 195.974C630.215 191.099 627.439 188.684 622.076 183.995C618.218 180.606 615.913 179.027 612.808 178.842C610.691 178.702 607.022 179.213 606.504 180.931Z" fill="#6B6E85"/>
<path opacity="0.18" d="M638.979 202.18C640.558 206.106 642.835 213.258 642.51 222.373C642.185 232.283 638.979 239.481 637.724 241.959C631.963 253.645 622.856 259.909 618.396 262.526C622.02 261.171 627.27 258.6 632.242 253.785C646.784 239.668 644.647 219.755 644.461 218.353C643.625 211.341 641.116 205.872 638.979 202.18Z" fill="#6B6E85"/>
<path d="M585.25 143.442C588.053 152.788 589.08 158.229 593.051 166.785C594.92 170.784 596.695 173.946 597.956 176.038C593.892 177.945 587.305 180.409 578.85 180.735C573.852 180.921 569.554 180.27 566.238 179.526C566.565 176.968 566.752 173.76 566.518 170.133C566.191 165.576 565.21 161.716 564.276 158.88C559.791 158.322 555.26 157.717 550.776 157.159C549.888 155.206 549.001 153.207 548.113 151.254C546.898 151.207 545.637 151.161 544.423 151.114C545.357 148.417 546.758 144.186 548.393 138.931C551.43 129.027 551.383 127.632 553.018 125.399C557.549 119.308 567.686 115.402 574.366 118.703C578.336 120.61 580.672 128.236 585.25 143.442Z" fill="white" stroke="#030235" stroke-width="1.64647" stroke-miterlimit="10"/>
<path d="M545.064 151.559C547.313 151.608 549.517 151.411 551.721 151.065C552.575 150.916 552.215 149.482 551.361 149.631C549.247 149.977 547.178 150.125 545.064 150.076C544.209 150.076 544.209 151.559 545.064 151.559Z" fill="#030235"/>
<path d="M543.618 133.825C545.04 133.132 546.919 133.501 547.834 134.703C548.392 135.443 549.713 134.749 549.154 134.01C547.732 132.161 545.04 131.56 542.856 132.623C541.992 133.039 542.754 134.241 543.618 133.825Z" fill="#030235"/>
<path d="M555.034 135.38C556.748 134.942 558.605 135.42 559.605 136.694C560.129 137.331 561.367 136.734 560.843 136.097C559.462 134.424 556.986 133.628 554.653 134.265C553.796 134.464 554.129 135.619 555.034 135.38Z" fill="#030235"/>
<path d="M555.019 140.563C554.96 140.016 555.078 139.468 555.433 138.97C555.492 138.871 555.61 138.721 555.728 138.622C555.492 138.373 555.373 138.323 555.433 138.572C555.314 138.672 555.373 139.17 555.314 139.319C555.255 139.568 555.137 139.817 555.019 140.066C554.96 140.165 554.901 140.265 554.841 140.314C555.137 140.763 555.314 140.812 555.433 140.464C555.669 140.265 555.787 139.817 555.965 139.568C556.142 139.269 556.319 138.97 556.496 138.672C556.969 137.925 555.846 137.178 555.078 137.776C554.664 138.124 554.428 138.473 554.25 138.921C553.955 139.866 555.669 140.265 555.965 139.319C556.024 139.07 556.142 138.97 556.319 138.821C555.846 138.522 555.373 138.224 554.901 137.925C554.487 138.622 554.014 139.319 553.659 140.066C553.364 140.613 553.423 141.26 554.073 141.609C555.669 142.455 556.674 140.713 556.969 139.667C557.206 138.672 557.206 136.581 555.255 137.029C553.718 137.427 553.127 139.319 553.186 140.464C553.305 141.509 555.078 141.509 555.019 140.563Z" fill="#030235"/>
<path d="M551.236 127.256C551.561 125.253 552.349 121.899 554.527 118.452C555.315 117.241 556.937 114.679 559.579 112.956C564.63 109.649 572.37 109.928 577.978 113.98C583.493 117.94 586.227 125.02 585.022 132.1C573.807 130.516 562.498 128.886 551.236 127.256Z" fill="#2466C5"/>
<path d="M532.808 127.515C550.306 129.686 567.757 131.857 585.255 134.028C587.914 134.352 587.914 130.194 585.255 129.871C567.757 127.7 550.306 125.529 532.808 123.357C530.102 123.034 530.149 127.191 532.808 127.515Z" fill="#030235"/>
<path d="M574.451 131.943C571.328 133.061 569.483 135.204 567.401 137.672C562.953 142.981 564.278 144.937 561.156 148.244C556.188 153.507 551.125 150.386 546.678 155.556C542.893 159.934 543.413 165.848 543.555 167.199C543.697 168.503 544.359 173.766 548.759 177.398C552.592 180.519 557.702 181.217 558.033 180.519C558.128 180.286 557.749 179.634 554.91 177.771C555.715 178.33 557.039 179.029 558.695 179.355C560.635 179.681 562.48 179.355 562.48 179.075C562.48 178.842 561.439 178.889 560.635 178.051C560.162 177.538 559.973 176.979 559.831 176.467C561.392 177.445 563.332 178.33 565.177 177.771C570.24 176.281 571.139 165.243 571.423 161.564C572.369 149.734 568.915 143.261 573.126 139.069C573.457 138.697 575.16 137.02 577.053 137.392C579.418 137.812 581.216 141.398 580.459 143.773C579.797 145.822 577.431 146.381 577.573 146.8C577.81 147.266 581.784 146.521 585.143 143.913C586.373 142.981 587.367 142.189 587.887 140.792C588.786 138.324 587.746 135.53 586.326 133.853C583.393 130.5 577.857 130.733 574.451 131.943Z" fill="#030235" stroke="#030235" stroke-width="1.64647" stroke-miterlimit="10"/>
<path opacity="0.22" d="M578.7 147.028C577.934 147.122 576.832 147.122 576.784 146.887C576.736 146.745 577.023 146.557 577.023 146.557C577.023 146.557 576.113 147.687 574.964 147.828C574.437 147.875 573.958 147.734 573.623 147.546C575.634 151.736 577.694 156.773 579.466 162.61C581.382 169.013 582.484 174.803 583.107 179.793C585.167 179.793 588.088 179.558 591.441 178.522C594.172 177.675 596.327 176.545 597.956 175.556C593.645 168.918 591.441 163.599 590.196 159.974C589.621 158.279 588.376 154.278 587.801 152.3C586.699 148.723 585.789 145.757 585.214 143.78C584.927 144.062 584.4 144.486 583.777 144.909C582.867 145.569 581.095 146.793 578.7 147.028Z" fill="#6B6E85"/>
<path d="M565.836 110.881C570.562 111.761 574.119 115.375 574.704 119.591C575.338 124.64 571.439 128.115 571.05 128.393C576.117 128.995 581.136 129.551 586.204 130.153C586.301 129.041 586.35 127.513 586.009 125.752C585.034 120.1 581.526 116.579 580.795 115.884C579.626 114.773 575.484 111.02 569.295 110.696C567.882 110.649 566.664 110.788 565.836 110.881Z" fill="#2466C5"/>
</g>
<defs>
<clipPath id="clip0_170_22512">
<rect width="652.133" height="503.064" fill="white" transform="matrix(-1 0 0 1 652.592 0)"/>
</clipPath>
</defs>
</svg>
